<svg xmlns="http://www.w3.org/2000/svg" viewBox="0 0 2048 2048"><defs><style>.cls-1{fill:#01c0c0;}.cls-2{fill:#c1c1c1;}</style></defs><title>arrow_sprite</title><g id="arrow_sprites"><polygon class="cls-1" points="1660.77 686.43 1472.84 498.5 1657.77 313.57 1594.13 249.93 1345.23 498.83 1408.87 562.47 1409.2 562.14 1597.13 750.07 1660.77 686.43"/><polygon class="cls-1" points="1357.23 1337.57 1545.16 1525.5 1360.23 1710.43 1423.87 1774.07 1672.77 1525.17 1609.13 1461.53 1608.8 1461.86 1420.87 1273.93 1357.23 1337.57"/><polygon class="cls-2" points="636.77 686.43 448.84 498.5 633.77 313.57 570.13 249.93 321.23 498.83 384.87 562.47 385.2 562.14 573.13 750.07 636.77 686.43"/><polygon class="cls-2" points="333.23 1337.57 521.16 1525.5 336.23 1710.43 399.87 1774.07 648.77 1525.17 585.13 1461.53 584.8 1461.86 396.87 1273.93 333.23 1337.57"/></g></svg>