<svg id="圖層_1" data-name="圖層 1" xmlns="http://www.w3.org/2000/svg" viewBox="0 0 2048 4096"><defs><style>.cls-1{fill:#606060;}.cls-2{fill:#5f5f5f;}.cls-3{fill:#01c0c0;}.cls-4{fill:#e02d2d;}</style></defs><title>工作區域 1</title><polygon class="cls-1" points="671.73 1484.8 832.46 1392 671.73 1299.2 671.73 1345.61 191.68 1345.61 191.54 1430.43 671.73 1430.43 671.73 1484.8"/><polygon class="cls-1" points="352.27 1633.61 352.27 1587.2 191.54 1680 352.27 1772.8 352.27 1718.43 832.46 1718.43 832.32 1633.61 352.27 1633.61"/><path class="cls-2" d="M584.68,2338.26A58.49,58.49,0,0,0,564.83,2258h0a58.49,58.49,0,0,0-80.3,19.84h0l-234.9,389.09,100.17,60.47Z"/><polygon class="cls-2" points="240.51 2682.11 238.23 2798.96 340.56 2742.51 240.51 2682.11"/><rect class="cls-2" x="179" y="2852.48" width="666" height="18"/><path class="cls-2" d="M332,3837.71A43.42,43.42,0,0,0,375.29,3881H648.71A43.42,43.42,0,0,0,692,3837.71V3431H332Z"/><polygon class="cls-2" points="614 3323 602 3287 423 3287 410.33 3323 305 3323 305 3413 719 3413 719 3323 614 3323"/><polygon class="cls-3" points="1695.73 1484.8 1856.46 1392 1695.73 1299.2 1695.73 1345.61 1215.68 1345.61 1215.54 1430.43 1695.73 1430.43 1695.73 1484.8"/><polygon class="cls-3" points="1376.27 1633.61 1376.27 1587.2 1215.54 1680 1376.27 1772.8 1376.27 1718.43 1856.46 1718.43 1856.32 1633.61 1376.27 1633.61"/><path class="cls-3" d="M1608.68,2338.26a58.49,58.49,0,0,0-19.84-80.3h0a58.49,58.49,0,0,0-80.3,19.84h0l-234.9,389.09,100.17,60.47Z"/><polygon class="cls-3" points="1264.51 2682.11 1262.23 2798.96 1364.57 2742.51 1264.51 2682.11"/><rect class="cls-3" x="1203" y="2852.48" width="666" height="18"/><path class="cls-4" d="M1356,3837.71a43.42,43.42,0,0,0,43.29,43.29h273.42a43.42,43.42,0,0,0,43.29-43.29V3431H1356Z"/><polygon class="cls-4" points="1638 3323 1626 3287 1447 3287 1434.33 3323 1329 3323 1329 3413 1743 3413 1743 3323 1638 3323"/><path class="cls-1" d="M814.89,302.91H209.11a10.83,10.83,0,0,0-10.8,10.8V710.29a10.83,10.83,0,0,0,10.8,10.8H814.89a10.83,10.83,0,0,0,10.8-10.8V313.71A10.83,10.83,0,0,0,814.89,302.91ZM475.07,384.25a10.83,10.83,0,0,1,10.8-10.8h54.8a10.83,10.83,0,0,1,10.8,10.8v54.8a10.83,10.83,0,0,1-10.8,10.8h-54.8a10.83,10.83,0,0,1-10.8-10.8Zm0,100.35a10.83,10.83,0,0,1,10.8-10.8h54.8a10.83,10.83,0,0,1,10.8,10.8v54.8a10.83,10.83,0,0,1-10.8,10.8h-54.8a10.83,10.83,0,0,1-10.8-10.8ZM369.36,384.25a10.83,10.83,0,0,1,10.8-10.8H435a10.83,10.83,0,0,1,10.79,10.8v54.8A10.83,10.83,0,0,1,435,449.85H380.16a10.83,10.83,0,0,1-10.8-10.8Zm0,100.35a10.83,10.83,0,0,1,10.8-10.8H435a10.83,10.83,0,0,1,10.79,10.8v54.8A10.83,10.83,0,0,1,435,550.2H380.16a10.83,10.83,0,0,1-10.8-10.8Zm-29.3,54.8a10.83,10.83,0,0,1-10.8,10.8h-54.8a10.83,10.83,0,0,1-10.8-10.8V484.6a10.83,10.83,0,0,1,10.8-10.8h54.8a10.83,10.83,0,0,1,10.8,10.8Zm0-100.35a10.83,10.83,0,0,1-10.8,10.8h-54.8a10.83,10.83,0,0,1-10.8-10.8v-54.8a10.83,10.83,0,0,1,10.8-10.8h54.8a10.83,10.83,0,0,1,10.8,10.8Zm317.11,210.6a10.83,10.83,0,0,1-10.8,10.8H380.16a10.83,10.83,0,0,1-10.8-10.8v-54.8a10.83,10.83,0,0,1,10.8-10.8H646.37a10.83,10.83,0,0,1,10.8,10.8Zm0-110.25a10.83,10.83,0,0,1-10.8,10.8h-54.8a10.83,10.83,0,0,1-10.8-10.8V484.6a10.83,10.83,0,0,1,10.8-10.8h54.8a10.83,10.83,0,0,1,10.8,10.8Zm0-100.35a10.83,10.83,0,0,1-10.8,10.8h-54.8a10.83,10.83,0,0,1-10.8-10.8v-54.8a10.83,10.83,0,0,1,10.8-10.8h54.8a10.83,10.83,0,0,1,10.8,10.8ZM762.87,539.4a10.83,10.83,0,0,1-10.8,10.8h-54.8a10.83,10.83,0,0,1-10.8-10.8V484.6a10.83,10.83,0,0,1,10.8-10.8h54.8a10.83,10.83,0,0,1,10.8,10.8Zm0-100.35a10.83,10.83,0,0,1-10.8,10.8h-54.8a10.83,10.83,0,0,1-10.8-10.8v-54.8a10.83,10.83,0,0,1,10.8-10.8h54.8a10.83,10.83,0,0,1,10.8,10.8Z"/><path class="cls-3" d="M1838.89,302.91H1233.11a10.83,10.83,0,0,0-10.8,10.8V710.29a10.83,10.83,0,0,0,10.8,10.8h605.78a10.83,10.83,0,0,0,10.8-10.8V313.71A10.83,10.83,0,0,0,1838.89,302.91Zm-339.82,81.34a10.83,10.83,0,0,1,10.8-10.8h54.8a10.83,10.83,0,0,1,10.8,10.8v54.8a10.83,10.83,0,0,1-10.8,10.8h-54.8a10.83,10.83,0,0,1-10.8-10.8Zm0,100.35a10.83,10.83,0,0,1,10.8-10.8h54.8a10.83,10.83,0,0,1,10.8,10.8v54.8a10.83,10.83,0,0,1-10.8,10.8h-54.8a10.83,10.83,0,0,1-10.8-10.8ZM1393.36,384.25a10.83,10.83,0,0,1,10.8-10.8H1459a10.83,10.83,0,0,1,10.79,10.8v54.8a10.83,10.83,0,0,1-10.79,10.8h-54.81a10.83,10.83,0,0,1-10.8-10.8Zm0,100.35a10.83,10.83,0,0,1,10.8-10.8H1459a10.83,10.83,0,0,1,10.79,10.8v54.8A10.83,10.83,0,0,1,1459,550.2h-54.81a10.83,10.83,0,0,1-10.8-10.8Zm-29.3,54.8a10.83,10.83,0,0,1-10.8,10.8h-54.8a10.83,10.83,0,0,1-10.8-10.8V484.6a10.83,10.83,0,0,1,10.8-10.8h54.8a10.83,10.83,0,0,1,10.8,10.8Zm0-100.35a10.83,10.83,0,0,1-10.8,10.8h-54.8a10.83,10.83,0,0,1-10.8-10.8v-54.8a10.83,10.83,0,0,1,10.8-10.8h54.8a10.83,10.83,0,0,1,10.8,10.8Zm317.11,210.6a10.83,10.83,0,0,1-10.8,10.8H1404.16a10.83,10.83,0,0,1-10.8-10.8v-54.8a10.83,10.83,0,0,1,10.8-10.8h266.21a10.83,10.83,0,0,1,10.8,10.8Zm0-110.25a10.83,10.83,0,0,1-10.8,10.8h-54.8a10.83,10.83,0,0,1-10.8-10.8V484.6a10.83,10.83,0,0,1,10.8-10.8h54.8a10.83,10.83,0,0,1,10.8,10.8Zm0-100.35a10.83,10.83,0,0,1-10.8,10.8h-54.8a10.83,10.83,0,0,1-10.8-10.8v-54.8a10.83,10.83,0,0,1,10.8-10.8h54.8a10.83,10.83,0,0,1,10.8,10.8Zm105.7,100.35a10.83,10.83,0,0,1-10.8,10.8h-54.8a10.83,10.83,0,0,1-10.8-10.8V484.6a10.83,10.83,0,0,1,10.8-10.8h54.8a10.83,10.83,0,0,1,10.8,10.8Zm0-100.35a10.83,10.83,0,0,1-10.8,10.8h-54.8a10.83,10.83,0,0,1-10.8-10.8v-54.8a10.83,10.83,0,0,1,10.8-10.8h54.8a10.83,10.83,0,0,1,10.8,10.8Z"/></svg>