<svg xmlns="http://www.w3.org/2000/svg" viewBox="0 0 2048 4096"><defs><style>.cls-1{fill:#606060;}.cls-2{fill:#5f5f5f;}.cls-3{fill:#01c0c0;}.cls-4{fill:#e02d2d;}</style></defs><title>card_feature_sprite</title><g id="card_feature_sprites"><polygon class="cls-1" points="671.2 410.87 671.2 465.24 831.93 372.44 671.2 279.65 671.2 326.05 541.2 326.05 541.2 326.09 541.15 326.05 342.05 614.98 192.07 614.98 192.07 699.8 385.7 699.8 385.7 699.65 385.9 699.8 585.01 410.87 671.2 410.87"/><polygon class="cls-1" points="403.61 495.49 455.58 422.13 386.05 323.97 385.84 324.12 385.84 323.97 192.21 323.97 192.21 408.79 342.19 408.79 403.61 495.49"/><polygon class="cls-1" points="671.2 613.13 591.86 613.13 530.54 526.57 478.57 599.93 548 697.95 548.05 697.91 548.05 697.95 671.2 697.95 671.2 744.35 831.93 651.56 671.2 558.76 671.2 613.13"/><polygon class="cls-1" points="671.73 1484.8 832.46 1392 671.73 1299.2 671.73 1345.61 191.68 1345.61 191.54 1430.43 671.73 1430.43 671.73 1484.8"/><polygon class="cls-1" points="352.27 1633.61 352.27 1587.2 191.54 1680 352.27 1772.8 352.27 1718.43 832.46 1718.43 832.32 1633.61 352.27 1633.61"/><path class="cls-2" d="M584.68,2338.26A58.49,58.49,0,0,0,564.83,2258h0a58.49,58.49,0,0,0-80.31,19.85l-234.9,389.09,100.17,60.47Z"/><polygon class="cls-2" points="240.51 2682.11 238.23 2798.96 340.56 2742.51 240.51 2682.11"/><rect class="cls-2" x="179" y="2852.48" width="666" height="18"/><path class="cls-2" d="M332,3837.71A43.42,43.42,0,0,0,375.29,3881H648.71A43.42,43.42,0,0,0,692,3837.71V3431H332Z"/><polygon class="cls-2" points="614 3323 602 3287 423 3287 410.33 3323 305 3323 305 3413 719 3413 719 3323 614 3323"/><polygon class="cls-3" points="1695.2 410.87 1695.2 465.24 1855.93 372.44 1695.2 279.65 1695.2 326.05 1565.2 326.05 1565.2 326.09 1565.15 326.05 1366.05 614.98 1216.07 614.98 1216.07 699.8 1409.7 699.8 1409.7 699.65 1409.9 699.8 1609.01 410.87 1695.2 410.87"/><polygon class="cls-3" points="1427.61 495.49 1479.58 422.13 1410.05 323.97 1409.84 324.12 1409.84 323.97 1216.21 323.97 1216.21 408.79 1366.19 408.79 1427.61 495.49"/><polygon class="cls-3" points="1695.2 613.13 1615.86 613.13 1554.54 526.57 1502.57 599.93 1572 697.95 1572.05 697.91 1572.05 697.95 1695.2 697.95 1695.2 744.35 1855.93 651.56 1695.2 558.76 1695.2 613.13"/><polygon class="cls-3" points="1695.73 1484.8 1856.46 1392 1695.73 1299.2 1695.73 1345.61 1215.68 1345.61 1215.54 1430.43 1695.73 1430.43 1695.73 1484.8"/><polygon class="cls-3" points="1376.27 1633.61 1376.27 1587.2 1215.54 1680 1376.27 1772.8 1376.27 1718.43 1856.46 1718.43 1856.32 1633.61 1376.27 1633.61"/><path class="cls-3" d="M1608.68,2338.26a58.49,58.49,0,0,0-19.85-80.31h0a58.49,58.49,0,0,0-80.31,19.85l-234.9,389.09,100.17,60.47Z"/><polygon class="cls-3" points="1264.51 2682.11 1262.23 2798.96 1364.57 2742.51 1264.51 2682.11"/><rect class="cls-3" x="1203" y="2852.48" width="666" height="18"/><path class="cls-4" d="M1356,3837.71a43.42,43.42,0,0,0,43.29,43.29h273.42a43.42,43.42,0,0,0,43.29-43.29V3431H1356Z"/><polygon class="cls-4" points="1638 3323 1626 3287 1447 3287 1434.33 3323 1329 3323 1329 3413 1743 3413 1743 3323 1638 3323"/></g></svg>