<svg xmlns="http://www.w3.org/2000/svg" viewBox="0 0 1024 1024"><defs><style>.cls-1{fill:#fff;}</style></defs><title>close</title><g id="close"><path class="cls-1" d="M556.16,512.26,733,335.39a31.49,31.49,0,0,0,0-44.54h0a31.49,31.49,0,0,0-44.55,0L511.61,467.71,334.74,290.85a31.49,31.49,0,0,0-44.55,0h0a31.49,31.49,0,0,0,0,44.54L467.06,512.26,290.19,689.13a31.51,31.51,0,0,0,0,44.55h0a31.51,31.51,0,0,0,44.55,0L511.61,556.81,688.48,733.68a31.51,31.51,0,0,0,44.55,0h0a31.51,31.51,0,0,0,0-44.55Z"/></g></svg>