<svg id="圖層_1" data-name="圖層 1" xmlns="http://www.w3.org/2000/svg" viewBox="0 0 275 300"><defs><style>.cls-1{fill:#7bceff;}.cls-2{fill:#00c0bf;}.cls-3{fill:#fff;}.cls-4{fill:#ffe20e;}</style></defs><title>description</title><rect class="cls-1" x="-0.05" y="0.07" width="275" height="195.15"/><path class="cls-2" d="M42.16,230.22v-1.44H44l-.28-.82a6.3,6.3,0,0,0-.46-1l1.53-.22a6.14,6.14,0,0,1,.46,1.09l.32,1h1.67v1.44Zm.54,1.19H47v1.39H42.7Zm0,2.62H47v1.37H42.7Zm4.36,8.89H45.62v-.84H44.18v1H42.75v-6.27h4.31Zm-1.44-4.77H44.18v2.61h1.44Zm5.86-5.63v.83h2.85v-.83h-.95V229.7h4.49v2.82H55.75v.83H58.3v1.14H55.75v.86H58v1.09H55.75v.92h2.69v1.21H54.36l.41.7a3.87,3.87,0,0,0,.43.55l.23.23a5.5,5.5,0,0,0,1.44-1.39l1.27.71a9.25,9.25,0,0,1-1.53,1.43.92.92,0,0,0-.16.12,10.67,10.67,0,0,0,1.81.72l.3.08-.81,1.36a8.53,8.53,0,0,1-3.15-1.93,12.37,12.37,0,0,1-1.75-2.58H52.6l-.43.38-.59.44v1.84l1.11-.22,1.26-.3v1.44c-.92.24-2.51.52-4.75.86l-.52.09-.35-1.41.89-.09.9-.14v-1.37a13.17,13.17,0,0,1-2.31,1l-.57-1.34.48-.12a11.19,11.19,0,0,0,2.87-1H47.38v-1.21H50v-.92h-2.1v-1.09H50v-.86H47.67v-1.14H50v-.83H48.11V229.7H52.6v2.82Zm-4-3.42v-1.28h4.65a.86.86,0,0,0,0-.13l-.16-.32-.27-.46,1.55-.2.1.16c.06.11.13.25.2.41l.23.54h4.7v1.28Zm3.76,1.51H49.43v1h1.85Zm3,4.74v-.86H51.46v.86Zm0,2v-.92H51.46v.92Zm2.22-6.75H54.72v1h1.83Z"/><path class="cls-2" d="M60,233.94a21.69,21.69,0,0,0,4.11-7.21l1.66.78-.18.48a25.78,25.78,0,0,1-1.34,3V243.1H62.57v-9.48a22.31,22.31,0,0,1-1.87,2.46Zm4.77,5.86a19.08,19.08,0,0,0,2.35-6l1.67.48a20,20,0,0,1-2.42,6.49Zm3.53-9.45a3.12,3.12,0,0,0-.18.39,16.34,16.34,0,0,1-1.91,3.4l-1.35-1.41a17,17,0,0,0,2.87-6l1.7.14-.23,1a6.29,6.29,0,0,1-.3.91h7.14a15.77,15.77,0,0,1-1.16,4.9l-1.63-.59a12.2,12.2,0,0,0,.89-2.74Zm1.63,1.1h1.77V241a2,2,0,0,1-.4,1.4,2.2,2.2,0,0,1-1.62.43H67.86l-.43-1.67,1.94.07a.5.5,0,0,0,.57-.57Zm4.78,9.33a35.4,35.4,0,0,0-2.37-6.32l1.51-.64A30.43,30.43,0,0,1,76.37,240Z"/><path class="cls-2" d="M79.49,235.49v-8.1h14v13.68a2.25,2.25,0,0,1-.34,1.37c-.22.29-.78.44-1.67.44h-2l-.41-1.69,2.13.09a.5.5,0,0,0,.57-.57v-3.17H87.27v5.07H85.58v-5.07H81.13a14.1,14.1,0,0,1-1.8,5.56l-1.46-1.29A11.38,11.38,0,0,0,79.13,239,13.75,13.75,0,0,0,79.49,235.49Zm1.69-3.84h4.4v-2.73h-4.4Zm4.4,1.51h-4.4V236h4.4Zm6.21-4.24H87.27v2.73h4.52Zm0,4.24H87.27V236h4.52Z"/><path class="cls-2" d="M95.75,227.48h16.06v1.57h-7.23v1.38h5.75v7.11h-6l-.14.57a5.8,5.8,0,0,1-1,2.08,18.34,18.34,0,0,0,7.18,1.14c.83,0,1.38,0,1.64-.05l-.38,1.67h-.51c-4,0-7-.53-9-1.58l-.27.18a14.44,14.44,0,0,1-5.39,1.55l-.79-1.45a12.71,12.71,0,0,0,4.88-1.12l-1.17-.78c-.52-.38-1-.73-1.35-1l1.22-.94.45.32.87.61,1.19.76.24-.23a3.36,3.36,0,0,0,.78-1.69H97.26V230.4H103v-1.35H95.75Zm7.26,5.7v-1.32H98.9v1.32Zm-.1,2.93a1.89,1.89,0,0,0,.08-.62l0-.87H98.9v1.49Zm5.78,0v-1.49H104.6l0,.87a1.61,1.61,0,0,1-.07.62Zm0-2.93v-1.32h-4.11v1.32Z"/><path class="cls-2" d="M113.43,233.91a20.6,20.6,0,0,0,3.22-7.22l1.55.41-.18.63a23.86,23.86,0,0,1-1.1,3.4v12h-1.55V234l-.6,1a7.82,7.82,0,0,1-.63.88Zm5,3.15v-7h4.51v-1.17h-4.61v-1.51h11.18v1.51h-5V230H129v7h-4.58l-.06,1.19a3.31,3.31,0,0,1-.65,1.75,10.57,10.57,0,0,0,2.4.89,21.59,21.59,0,0,0,3.65.39l-.42,1.64a14,14,0,0,1-6.56-1.68,6.15,6.15,0,0,1-2,1.26,10.31,10.31,0,0,1-2.48.52l-.8-1.4a7.63,7.63,0,0,0,4-1.25c-.34-.26-.73-.6-1.17-1l-1.07-1.07,1.18-.82.3.3a13.91,13.91,0,0,0,1.48,1.3l.21.16a4,4,0,0,0,.45-1.42c0-.41,0-.66,0-.75Zm4.51-4.26v-1.4h-3v1.4Zm0,2.89V234.1h-3v1.59Zm4.56-2.89v-1.4h-3v1.4Zm0,2.89V234.1h-3v1.59Z"/><path class="cls-2" d="M135.12,229.46h-.21a23.69,23.69,0,0,1-2.46.27l-.29,0-.42-1.69A29.22,29.22,0,0,0,139,227l.69,1.5a15.62,15.62,0,0,1-2.49.62l-.43.09v2.51h3.19v1.6h-3.19v.39a32.82,32.82,0,0,1,2.85,2.73l.53.57-1,1.44-1.34-1.69a12.8,12.8,0,0,0-1-1.16v7.52h-1.62v-7.22a16.06,16.06,0,0,1-3.15,4.31l-.75-1.74a16.58,16.58,0,0,0,3.61-5.15h-3.34v-1.6h3.63Zm5.93,9.72V227.91h1.67v11.27Zm4.15-12.47h1.71V241a2,2,0,0,1-.42,1.42,2.26,2.26,0,0,1-1.59.42h-2.66l-.39-1.78,2.76.09a.51.51,0,0,0,.59-.57Z"/><path class="cls-2" d="M153.32,229.88h2.55v12.73h-1.59v-1.19h-3.13v1.41h-1.59v-13h1.8a8.9,8.9,0,0,0,1-2.44c0-.1.07-.25.12-.44l1.61.48A6.06,6.06,0,0,1,153.32,229.88Zm1,1.46h-3.13v3.4h3.13Zm0,4.9h-3.13v3.7h3.13Zm5.4-6.71h5.43c0,.77,0,2.46-.05,5.08a44.94,44.94,0,0,1-.26,5.57,3.66,3.66,0,0,1-.89,2.22c-.44.38-1.47.57-3.11.57-.46,0-.74,0-.84,0l-.55-1.74.52,0c.95,0,1.56.07,1.84.07a1.43,1.43,0,0,0,.67-.13,1.35,1.35,0,0,0,.5-.69c.3-.76.46-3.46.46-8.1v-1.29h-4.17a16.33,16.33,0,0,1-2,4.29l-1.37-1.33a16.35,16.35,0,0,0,2.49-7.32L160,227c0,.16,0,.45,0,.88A9.17,9.17,0,0,1,159.68,229.53Zm.8,9.17a24.53,24.53,0,0,0-2.23-4.44l1.48-.78a27.93,27.93,0,0,1,2.05,3.58c.09.2.22.46.37.78Z"/><path class="cls-2" d="M172.93,228l-.4-.29,1.32-1a13.93,13.93,0,0,1,2.82,2.07l-1.09.89H183v1.64h-9.76v1.17c0,.63,0,1.15,0,1.55h7.91a40.23,40.23,0,0,1-.29,5.23,4.9,4.9,0,0,1-1,2.79,4.45,4.45,0,0,1-2.93.67c-.56,0-1,0-1.33,0l-.5-1.77q1,.09,1.92.09h.36l.19,0a1.33,1.33,0,0,0,1.05-.42,3.58,3.58,0,0,0,.39-1.31c.11-.64.22-1.86.32-3.66h-6.17a11.41,11.41,0,0,1-4.62,7.5l-1.33-1.3a10.1,10.1,0,0,0,3.41-4,12.15,12.15,0,0,0,.9-4.82v-1.69h-4.24v-1.64H175A17.11,17.11,0,0,0,172.93,228Z"/><path class="cls-2" d="M200.94,229.6v1.62h-5L196,233a20.49,20.49,0,0,0,1.06,5.6c.54,1.43,1,2.15,1.43,2.15.15,0,.26-.12.35-.34a16.47,16.47,0,0,0,.45-1.93c0-.26.12-.61.22-1.06l1.49,1.49a12.87,12.87,0,0,1-1.11,3.11,1.6,1.6,0,0,1-1.4.9c-1,0-1.87-1-2.72-2.91a25.83,25.83,0,0,1-1.55-8.79h-9.64V229.6h9.55v-2.89h1.73v2.89Zm-10.74,5.68v4.47a30.78,30.78,0,0,0,3.56-.82v1.76a58.26,58.26,0,0,1-8,1.5l-.91.1-.22-1.76,1.86-.21c.76-.07,1.42-.16,2-.25v-4.79h-3.26v-1.64h8.11v1.64Zm8.64-5.7-.18-.27a18.61,18.61,0,0,0-1.46-1.85l1.14-.78a9.32,9.32,0,0,1,1.78,2Z"/><path class="cls-2" d="M215.43,236.17v1.28a25.3,25.3,0,0,1-3.77,1.51h7.21v1.41h-7.21v1.09c0,1-.53,1.48-1.59,1.48h-2.56l-.39-1.41,2.38.07a.46.46,0,0,0,.52-.52v-.71h-7.55V239H210v-.74c.2,0,.65-.13,1.33-.31l1.71-.44h-7.31v-1.3Zm1.53-.75H204.41V238h-1.55v-3.93h.87l-.18-6.68a17.21,17.21,0,0,0,3.82-.5l.76,1.28a11.67,11.67,0,0,1-3.08.47l0,.89h2.72v1.19h-2.67l0,1h2.65v1.21h-2.62l0,1.16h10.9v-1.16h-2.43v-1.21h2.49l0-1h-2.51v-1.19h2.54l0-.95h-2.76v-1.38h4.29l-.18,6.87h.91V238H217Zm-6-6.25a8.63,8.63,0,0,1-.95.52l-1.1.53-.88-1.16,1.11-.34a2.47,2.47,0,0,0,.8-.37l-.59-.44-.59-.38.93-.82.59.38.78.58.61-.46a3.07,3.07,0,0,0,.46-.48l.87.78a3.61,3.61,0,0,1-.51.52l-.52.43.43.39.5.52-1.07.78-.45-.55Zm.08,3.56a7.27,7.27,0,0,1-1.85.91l-.18.07-.74-1.17.35-.08A5.45,5.45,0,0,0,210,232l.1-.06-.6-.44-.57-.39.9-.77.61.39a3.61,3.61,0,0,1,.73.54,4.33,4.33,0,0,0,.62-.5l.59-.59.91.78-.62.59-.56.46.5.45.5.48-1.12.85-.5-.6Z"/><path class="cls-2" d="M226.15,232.75a25.05,25.05,0,0,1-4.75,2.62l-.87-1.46a28.56,28.56,0,0,0,4.84-2.46l.46-.29Zm.32,1.64v-5.63h-5.86v-1.53h7.47V234l1.67.32a3.79,3.79,0,0,1-.23.62l-.22.41h5.86v7.75h-1.64v-.84h-9.81v.84h-1.64v-7.75h5.45l.2-.39c0-.09.09-.24.18-.47a.33.33,0,0,1,0-.1ZM223.78,232a16,16,0,0,0-2.33-1.67l-.25-.16.86-1.14a18.92,18.92,0,0,1,2.72,1.69Zm-.07,6.11h9.81v-1.3h-9.81Zm0,2.73h9.81v-1.39h-9.81Zm10.79-6v-6h-5.8v-1.53h7.42v7.55Zm-.25-2.33a25,25,0,0,1-4.13,1.58l-.6.18-.75-1.44a28.27,28.27,0,0,0,5.32-1.84Zm-2.52-.77q-.64-.5-1.29-.93l-1.17-.76.93-1.09,1.17.63a11.29,11.29,0,0,1,1.35.87Z"/><path class="cls-2" d="M30.94,268.58v1.67H14.54v-1.67Zm-16.08-9V257.9H30.64v1.67Zm4.6,8.46a40.09,40.09,0,0,0-2.1-7.27l1.67-.51a36.06,36.06,0,0,1,2,6.05c.07.32.16.73.28,1.21Zm3.4-10.13a14.43,14.43,0,0,0-1.44-1.29l-1.52-1.19,1.25-1a17.84,17.84,0,0,1,3,2.26Zm5.32,2.74-.26,1.16a41.76,41.76,0,0,1-2,6.21l-1.84-.59a36.8,36.8,0,0,0,2.41-7.24Z"/><path class="cls-2" d="M40.44,255v8.67H35.13v4.15a26.55,26.55,0,0,0,3.28-.82L38,266c-.08-.22-.26-.63-.53-1.23l1.6-.49A31.76,31.76,0,0,1,41,269.51l-1.75.53-.19-.8a3.06,3.06,0,0,0-.22-.73c-1.73.53-3.44,1-5.13,1.33l-1,.24-.36-1.78.59-.06.51-.09V255Zm-1.59,1.51H35.13v1.94h3.72Zm-3.72,5.65h3.72V260H35.13Zm11.49-5.67h-3.1v14.32H41.83v-15.9h6.44v12.22a2,2,0,0,1-.42,1.43,2.33,2.33,0,0,1-1.59.4H44.62l-.39-1.76,1.82.09a.5.5,0,0,0,.57-.57Z"/><path class="cls-2" d="M66.54,260.41l-.83,1.53a28.16,28.16,0,0,1-3.37-1.73V261H54.65v-.68a22.28,22.28,0,0,1-3.55,1.8l-1-1.57.52-.16a12.68,12.68,0,0,0,2.62-1.12,7.92,7.92,0,0,0-.82-.82l-.93-.75,1.19-.94a10.1,10.1,0,0,1,1.64,1.34l.29.28a10,10,0,0,0,2.33-2H52.1V254.9h6.75l.62.81.75.85a7.94,7.94,0,0,0,1.55-1.71l1.3.78-.91,1.09a11.15,11.15,0,0,1-.87.84l.75.59.62.46a20.72,20.72,0,0,0,1.76-2.32l1.29.79-.86,1.12-.91,1.1.36.18A24.17,24.17,0,0,0,66.54,260.41ZM51,269h4l-.67-.85c-.17-.2-.37-.42-.59-.64l-.14-.15,1.47-.6a12.34,12.34,0,0,1,1.68,2,1.52,1.52,0,0,0,.14.21h2.9a11.93,11.93,0,0,0,1.78-2.26l1.62.59-.64.84a7.39,7.39,0,0,1-.6.69l-.14.14h4v1.46H51Zm1.74-6.78H64.16v4.43H52.72Zm9.83,1.4H54.33v1.61h8.22Zm-4-6.66a13.63,13.63,0,0,1-3,2.59h5.59A17.87,17.87,0,0,1,58.56,256.93Z"/><path class="cls-2" d="M77.26,255.35a17.91,17.91,0,0,0,5.68,12.38A8.3,8.3,0,0,0,84.39,269l-1.14,1.84c-.18,0-.89-.69-2.14-2.05a19.23,19.23,0,0,1-4.63-7.87,23.17,23.17,0,0,1-2.12,4.71,16.46,16.46,0,0,1-3,3.57,9.54,9.54,0,0,1-2.15,1.67L68,269.24a9.22,9.22,0,0,0,2.26-1.75,15.64,15.64,0,0,0,3.35-4.35A26.89,26.89,0,0,0,75.7,258l-.16-.77H70.83v-1.83Z"/><path class="cls-2" d="M98.31,257l-5.27,14-1.55-.57,5.25-14Z"/><path class="cls-2" d="M108,256.52l-.29-.81a5.66,5.66,0,0,0-.46-1l1.6-.21a5.88,5.88,0,0,1,.47,1.09l.32,1h2.49V258H105.4v-1.5Zm-2.16,2.62h5.68v1.43h-5.68Zm0,2.62h5.72v1.41h-5.72Zm0,2.78h5.74v6.12h-1.55v-.8h-2.64v1h-1.55Zm4.19,1.39h-2.64v2.53h2.64Zm11.75-8.73v1.55h-3.94v3.74h3.39V264h-3.39v4.58h3.94v1.55h-9.53v-1.55h3.92V264h-3.37v-1.55h3.37v-3.74h-3.51V257.2h3.65a11.78,11.78,0,0,0-1.35-2.53l1.74-.21a11.65,11.65,0,0,1,1.2,2.33,3.35,3.35,0,0,0,.16.41Z"/><path class="cls-2" d="M130.2,270.24h-1.63v-7.41H126.3v8h-1.7v-8h-1.39v-1.55h1.39v-6.2h13.64v6.18h1.37v1.57h-1.37v6a2.33,2.33,0,0,1-.34,1.38c-.23.29-.79.44-1.68.44h-1l-.41-1.76,1.09.1H136c.33,0,.5-.19.5-.57v-5.55h-2.35v7.41h-1.64v-7.41H130.2Zm-3.9-13.59v4.63h2.27v-4.63Zm3.9,0v4.63h2.34v-4.63Zm4,0v4.63h2.35v-4.63Z"/><path class="cls-2" d="M146.85,262.54v6.15a2.72,2.72,0,0,1-.34,1.58,1.43,1.43,0,0,1-1.22.47h-.64l-.4-1.43.63.07H145c.29,0,.44-.19.44-.57v-1.1h-2.1v3.13H142v-8.35h-1v-3.08h.56v-4.54h5.52v4.54h.53v2.67h9.78v1.35h-9.78v-.89Zm-.71-.76v-1h-3.63v1Zm-.35-5.49h-2.87v3.12h.76v-2.26h2.11Zm-2.46,7.93h2.1V263.1h-2.1Zm0,2.33h2.1v-1.17h-2.1Zm2.46-7.14v-1.18h-1v1.18Zm9.72,8.24-.32.79-.32.66h2.55v1.31h-9.84V269.1h2.8l-.27-.72-.3-.73h-1.28v-3.4h8v3.4Zm1.46-12v5.69h-8.83v-5.69h2.53v-1.16h1.22v1.16h1.32v-1.16h1.21v1.16Zm-6.3,2.28v-1h-1.25v1Zm0,2.19v-1.16h-1.25v1.16Zm4.39,5.34H150v1.05h5.07Zm-3.72,2.22.27.7.3.75h1.41a4.92,4.92,0,0,0,.64-1.34.24.24,0,0,1,0-.11Zm1.87-9.75v-1h-1.32v1Zm-1.32,1v1.16h1.32v-1.16Zm3.8-1v-1h-1.27v1Zm0,2.19v-1.16h-1.27v1.16Z"/><path class="cls-2" d="M160.14,265v2.62a11.21,11.21,0,0,1-.25,2.36l-1-.16a12.08,12.08,0,0,0,.25-2.26c0-1,0-1.87.07-2.58Zm5.34-6.54V259h-1.55v1.27h1.55v1.12h-1.55v1.48h1.8l-.16,5.36a4.14,4.14,0,0,1-.23,1.58,1.34,1.34,0,0,1-.67.71,8.43,8.43,0,0,1-2.18.24l-.34-1.5c.43,0,1,0,1.6,0q.54,0,.54-1c0-1.63,0-3,.09-4.11h-4.85v-9.08H166v1.4h-2v1.32h1.55v.38a9.93,9.93,0,0,0,4.1-3.73H171a13.07,13.07,0,0,0,4.18,3.66l-.62,1.54a8.88,8.88,0,0,1-1.69-1.1v1h-5.13v-1l-.82.64-.8.51Zm-4.88,11c.06-.6.09-1.28.09-2.05,0-1,0-1.77,0-2.44l.73-.05.1,2.31.06,2.17Zm.32-11.58h1.71v-1.32h-1.71Zm1.71,2.41V259h-1.71v1.27Zm0,2.6v-1.48h-1.71v1.48Zm-.48,5.5q0-.37,0-1c0-.39-.09-1.13-.24-2.21a1.57,1.57,0,0,0,0-.27l.71-.1.21,1.7.18,1.7Zm1.34-.7c0-.35-.09-.84-.2-1.46l-.25-1.42.59-.12c0,.16.06.29.09.39.09.38.16.68.19.9l.25,1.5Zm4.08,1.89-.82,1.27-1-1.3a11,11,0,0,0,2.23-4.06l1.4.39-.19.55-.18.45.73.57a7.57,7.57,0,0,1,.62.53l.11.09-.89,1.24-.61-.62a6,6,0,0,0-.57-.51,2.76,2.76,0,0,0-.17.35C168.08,268.74,167.86,269.09,167.57,269.54Zm-1.22-9.15h3.74v4.9h-3.74Zm2.46,1.3h-1.17V264h1.17Zm3.62-3.51a8.55,8.55,0,0,1-1.09-1l-1-1.15a10.27,10.27,0,0,1-2.05,2.15Zm-1.55,12.63-1.07-1.13a10.38,10.38,0,0,0,2.3-4.2l1.39.43-.2.66-.2.59.31.26c.51.47,1,1,1.53,1.52l.3.32-.94,1.33a11.72,11.72,0,0,0-1.84-2.13A7.88,7.88,0,0,1,170.88,270.81Zm-.07-10.42h3.84v4.9h-3.84Zm2.56,1.3h-1.26V264h1.26Z"/><path class="cls-2" d="M185.55,264.2h-2.39v.53a5.53,5.53,0,0,1-1.22,3.59,9,9,0,0,1-4.14,2.52l-1.17-1.62a7.37,7.37,0,0,0,3.73-1.71,4.09,4.09,0,0,0,1.11-3v-.23a.34.34,0,0,0,0-.09h-4.83v-1.62H193v1.62h-5.82v4.08a.55.55,0,0,0,.62.62h2.33a1,1,0,0,0,.63-.13,6.72,6.72,0,0,0,.32-1.88c0-.14,0-.33.07-.57l1.64.52c-.12,1.76-.34,2.82-.65,3.16a2.46,2.46,0,0,1-1.81.5h-3a1.83,1.83,0,0,1-1.34-.43,2.32,2.32,0,0,1-.44-1.63ZM183.89,256l-.28-.67a3.49,3.49,0,0,0-.37-.7l1.81-.21.36.76.3.82h6.71V261h-1.65v-3.31h-12V261h-1.65V256Zm-4.13,3.21h9.87v1.58h-9.87Z"/><path class="cls-2" d="M199.57,260.71a18.71,18.71,0,0,1,1.72.82l1.46.82-.76,1.21c-.17-.12-.3-.21-.39-.29a15.8,15.8,0,0,0-1.64-1.06l-.39-.22v1.84h-1.45V262a12.22,12.22,0,0,1-2.79,1.69l-.75-1.21.6-.23a11.13,11.13,0,0,0,2.87-1.55h-3v-3.29h3.11v-.86h-3.65v-1.19h3.65v-.91h1.45v.91h3.61v1.19h-3.61v.86h3.13v3.29Zm-5.1,8.4h3.23v-2.68h1.6v2.68h2.79v-3.4h-6.57v-1.37h14.73v1.37H203.7v1h5.91V268H203.7v1.12h7.17v1.38h-16.4Zm3.65-9.5v-1.09h-1.8v1.09Zm3.24,0v-1.09h-1.79v1.09Zm1.38-.93a9.14,9.14,0,0,0,2.93-4.22l1.43.37-.31.84-.32.69h4.37v1.29h-.91l-.11.33a9.4,9.4,0,0,1-1.78,3.19,8.26,8.26,0,0,0,2.55,1.16l.28.09-.66,1.39a10.53,10.53,0,0,1-3.24-1.64,11.33,11.33,0,0,1-2.79,1.5,1.94,1.94,0,0,0-.3.14l-.84-1.37.3-.09a6.48,6.48,0,0,0,2.57-1.2l-.27-.32a10.62,10.62,0,0,1-1.14-1.65l-.41.41-.52.43Zm3-1-.3.42.18.36a7.18,7.18,0,0,0,1.12,1.59l.19.19a9.14,9.14,0,0,0,1.39-2.31c0-.06.06-.15.11-.25Z"/><path class="cls-2" d="M216.57,265.94l1.28-.46a11.32,11.32,0,0,0,1.21-.51v1.56a52,52,0,0,1-6.37,2.35l-.43-1.67,1.41-.39c.57-.17,1-.31,1.23-.41v-8.76h-2.39v-1.53h6.39v1.53h-2.33Zm7.16-6.35a15.52,15.52,0,0,1-1.94,8,14.35,14.35,0,0,1-1.62,2.21,6,6,0,0,1-1,1.08l-1.34-1.35c.16,0,.67-.54,1.55-1.62a11,11,0,0,0,2-3.65,17.33,17.33,0,0,0,.74-4.63h-2.8V258h2.83v-3.54h1.7V258h4.61c0,.7,0,1.4-.07,2.1a81.82,81.82,0,0,1-.43,8.36,2.92,2.92,0,0,1-.91,1.78,5.22,5.22,0,0,1-2.85.51h-.73l-.53-1.75.43,0c.79.05,1.33.07,1.62.07a1.21,1.21,0,0,0,1-.44,5,5,0,0,0,.51-2.21q.17-1.77.25-6.84Z"/><path class="cls-2" d="M234.77,254.82a12,12,0,0,1-1.21,2.67l-.27.42h.25l1.28-.05a4.29,4.29,0,0,0,1.48-.2l-.48-.57-.6-.64,1.15-.8a30.45,30.45,0,0,1,2.67,3.28l-1.26.91-.27-.41-.26-.36a14.47,14.47,0,0,1-3.05.38c-1.09,0-2.39,0-3.88.1l-.27-1.67,1.41,0a12.09,12.09,0,0,0,1.42-3l.18-.48Zm1.57,12.8h-4v3.22H230.8v-10.4h7.09v8.41a2.37,2.37,0,0,1-.33,1.4,1.64,1.64,0,0,1-1.35.43H234.7l-.36-1.62,1.39.07c.41,0,.61-.18.61-.55Zm0-5.65h-4v1.43h4Zm-4,4.31h4v-1.55h-4Zm8.57-6.62a.54.54,0,0,0,.6.62h1.83a2.3,2.3,0,0,0,1.08-.16c.17-.1.26-.36.27-.75s0-.71,0-.92v-.23l1.54.5a4.35,4.35,0,0,1-.48,2.59,3.49,3.49,0,0,1-2.29.5h-2.44a1.94,1.94,0,0,1-1.34-.41,2.24,2.24,0,0,1-.44-1.63v-5.15h1.64V257a18.48,18.48,0,0,0,4.66-1.62l.78,1.37a21.42,21.42,0,0,1-5.44,1.85Zm0,8.65q0,.63.6.63h1.91a2.32,2.32,0,0,0,1.19-.2c.18-.13.27-.68.27-1.64v-.25l1.54.52a7,7,0,0,1-.35,2.44,1.32,1.32,0,0,1-.77.52,7.62,7.62,0,0,1-1.74.14h-2.28a2.22,2.22,0,0,1-1.56-.44,2.25,2.25,0,0,1-.45-1.63v-6h1.64V265a13.69,13.69,0,0,0,4.66-1.8l.87,1.52a22.53,22.53,0,0,1-5.53,2Z"/><path class="cls-2" d="M257.1,255.17l-.23,10.08h-1.66l-.32-10.08Zm0,13.94H255v-2.27h2.08Z"/><path class="cls-3" d="M199.38,55.94l-25.86,68.25h11.94l5.92-14.9H217l5.59,14.9h12l-25.2-68.25Zm-5.26,44.48,9.64-28.16L214,100.42Z"/><polygon class="cls-3" points="235.85 58.92 235.85 48.42 229.54 48.42 229.54 58.92 219.03 58.92 219.03 65.24 229.54 65.24 229.54 75.81 235.85 75.81 235.85 65.24 246.42 65.24 246.42 58.92 235.85 58.92"/><polygon class="cls-3" points="36.28 67.72 105.3 67.72 105.3 62.65 30.82 62.65 30.82 110.22 36.28 110.22 36.28 67.72"/><polygon class="cls-3" points="27.31 59.53 96.33 59.53 96.33 54.46 21.85 54.46 21.85 102.03 27.31 102.03 27.31 59.53"/><path class="cls-3" d="M39.4,70.58v47.57h74.48V70.58ZM88.27,97.86H80.06v8.2H73.21v-8.2H65V91h8.21V82.8h6.85V91h8.21Z"/><rect class="cls-3" x="144.19" y="45.47" width="3.83" height="81.42" transform="translate(29.54 -37.05) rotate(16.06)"/><path class="cls-3" d="M29.75,138.41h5.53v12.22h-1.5v-.76H25.31v.76H23.83V138.41h4.43a5,5,0,0,0,.34-.85l.27-.85,1.51.11-.28.79Zm4,1.41H25.31v1.69h8.47Zm-8.47,5.07h8.47v-2H25.31Zm0,3.57h8.47v-2.19H25.31Z"/><path class="cls-3" d="M45.74,148.87v-1.36h-3.5v-1.2h3.5v-.92H42.65v-1.15h3.09v-.89H42.91v-1.17h2.83v-1.11h-3.6v-1.21h3.6v-1H42.91v-1.16h2.83v-1h1.37v1h3.51v2.13h.91v1.21h-.91v2.28H47.11v.89h3.72v1.15H47.11v.92h4.37v1.2H47.11v1.38h2c1,0,1.83,0,2.61-.11l-.25,1.43H47.59a21.42,21.42,0,0,1-4.88-.36,4.93,4.93,0,0,1-2.21-1.28l-.12.18a8.17,8.17,0,0,1-1.77,1.84l-.83-1.17.3-.24a8.49,8.49,0,0,0,1.53-1.76,12.54,12.54,0,0,1-1.27-2.79l-.13-.32,1.1-.45a9.87,9.87,0,0,0,.95,2.21c0-.08,0-.14.06-.2a10,10,0,0,0,.53-2.3c0-.12,0-.27,0-.44H38.14V142a17.75,17.75,0,0,0,2.53-3.38H38v-1.25h4.18v1.16a15.38,15.38,0,0,1-1.86,2.91l-.38.47H42.2V143a13,13,0,0,1-1.08,4.41,4.37,4.37,0,0,0,1.48,1A12.36,12.36,0,0,0,45.74,148.87Zm3.59-9v-1H47.11v1Zm0,2.32v-1.11H47.11v1.11Z"/><path class="cls-3" d="M64.93,144a7.61,7.61,0,0,1,.75.71l.83.9-1,.8-.49-.56h-.69l-.69,0v.9h3.21v1.16H63.68v1.4c0,.83-.48,1.25-1.44,1.25H60.65l-.32-1.32,1.5.07a.39.39,0,0,0,.44-.44v-1H52.94v-1.16h9.33v-.86c-1.16.05-2.46.08-3.89.08l-4.64.06-.32-1.28,1.56,0,1.33,0h2.85V144h-5V139.3h5v-.71H53.09v-1.14h6.07v-.77h1.35v.77h6.18v1.14H60.51v.71h5V144Zm-5.77-2.86v-.8H55.48v.8Zm0,1.85v-.9H55.48v.9Zm0,6.25-1,1.09A17.21,17.21,0,0,0,56.06,149l-.41-.22,1-.83.38.15A14.37,14.37,0,0,1,59.16,149.22Zm5-8.1v-.8h-3.7v.8Zm0,1.85v-.9h-3.7v.9Zm-3.7,1v.8h1.85l1.73-.05-.34-.33.71-.41Z"/><path class="cls-3" d="M79.11,150.13l-.59.21-.18-.3-3.65.21-3.52.15-.22-1,2.41,0h1.71v-.67H71.92V147l-1.14.66-.61-1.1a21.07,21.07,0,0,1-.89,4l-1.2-1a18.71,18.71,0,0,0,1-6.44v-.18c0-.17,0-.34,0-.51s0-.33,0-.5V137H81.52v2.64H70.4v2.94l-.06,1.92a10.3,10.3,0,0,1-.13,1.85,7.21,7.21,0,0,0,2.68-1.5l.16-.15H71.14V142.5H81.55v2.24H74.76l-.19.27-.23.26h7.41a32.54,32.54,0,0,1-.14,3.67,2.8,2.8,0,0,1-.38,1.3,1,1,0,0,1-.71.3c-.65,0-1.07,0-1.27,0ZM80.2,138H70.4v.78h9.8Zm-5.12,2.87H71v-.73h4.06Zm0,1.16H71v-.72h4.06Zm-2.62,1.28V144h2v-.69Zm.7,2.86-.32.25-.35.26h2.58v-.51ZM73.08,148h2v-.6h-2ZM77,140v2.15H75.69V140Zm-1.27,3.26V144h1.63v-.69Zm3,5.4.06.12c0,.08.1.17.16.25l.25.28.72.06a.34.34,0,0,0,.3-.14,9,9,0,0,0,.19-1.86c0-.28,0-.7.06-1.25H76.23v.51h3.08v2Zm-.52-1.31H76.23v.6h1.91Zm-.63,1.31H76.23v.64l.79,0,.86-.08Zm4.42-7.84H77.58v-.73h4.35Zm0,1.16H77.58v-.72h4.35Zm-1.65,2v-.69H78.49V144Z"/><path class="cls-3" d="M91.17,145h6v1.36h-6V149a1.71,1.71,0,0,1-.34,1.19,1.84,1.84,0,0,1-1.37.37H87.32L87,149.12l2.24.06c.33,0,.5-.16.5-.47v-2.38H83.22V145h6.51v-1.15l1.51-.69a7.1,7.1,0,0,0,1.19-.74H85.87V141h8.8v1.22a14.65,14.65,0,0,1-3.5,2.35ZM89.52,138l-.25-.57a2.73,2.73,0,0,0-.31-.59l1.54-.18a3.94,3.94,0,0,1,.32.65l.26.69h6v4h-1.4v-2.66H85v2.66H83.56v-4Z"/><path class="cls-3" d="M105,142.13h7.31v1.5H105v7h-1.55v-7H98.36v-1.5h5.09v-5.45H105v1.88h6.16V140H105Zm5.86,7a59.61,59.61,0,0,0-5.33-3.46l.91-1a49.79,49.79,0,0,1,5.37,3.14Z"/><path class="cls-3" d="M156.49,145.9h6.9c0,.46-.08.83-.11,1.09a10.4,10.4,0,0,1-.39,2.25,1.73,1.73,0,0,1-.67.94,5.81,5.81,0,0,1-2.4.28c-.73,0-1.31,0-1.73,0l-.33-1.37c1,0,1.9.06,2.74.06a1.15,1.15,0,0,0,.83-.22,2.67,2.67,0,0,0,.32-1.21c0-.14,0-.31.08-.52h-7.18l.8-2.5-.5.23a25.08,25.08,0,0,1-3,1.15l-.65-1.29a31.19,31.19,0,0,0,6.94-2.69h-6.71v-1.29h5.12v-1.5h-4.1V138h4.1v-1.32H158V138h3.73v1.27H158v1.5h1.93a20.34,20.34,0,0,0,3.71-3.53l1.08.77a22.21,22.21,0,0,1-2.73,2.76h3.15v1.29h-4.74l-.17.1a15.66,15.66,0,0,1-2.15,1.21h6.85v1.26h-8.06Z"/><path class="cls-3" d="M171.25,139.7h-4.92v-1.25h1.83l-.27-.78a8.57,8.57,0,0,0-.38-.8l1.38-.18.12.24a12.53,12.53,0,0,1,.55,1.52h1.69Zm-4.57,1H171v1.18h-4.3Zm0,2.23H171v1.16h-4.27Zm0,2.36H171v5.18h-1.29v-.68H168v.83h-1.29Zm3,1.15H168v2.2h1.68Zm4.59,1,.34-.12a6.31,6.31,0,0,0,.68-.26l1-.44V148a26.31,26.31,0,0,1-3.91,1.4l-.71.22-.34-1.43.81-.17c.32-.09.58-.17.77-.24v-4.14h-1.36v-1.29h4.21v1.29h-1.49Zm4.59,1.45c.14,0,.27-.77.4-2.32l1,1.06c-.13,2-.59,3-1.38,3a1.63,1.63,0,0,1-1.43-1.11,11.4,11.4,0,0,1-.9-2.72,15.25,15.25,0,0,1-.35-3.31,20.68,20.68,0,0,0-.16-2.84h-4.51v-1.35h4.5v-2.59h1.36v2.59h2.47v1.35h-2.47a36.85,36.85,0,0,0,.64,6.27C178.38,148.24,178.65,148.91,178.87,148.91Zm0-9.93-.44-.82a7.5,7.5,0,0,0-.55-.85l1-.39.1.1a5.14,5.14,0,0,1,.47.61l.58.83Z"/><path class="cls-3" d="M185.14,146.46l1.09-.4a9.55,9.55,0,0,0,1-.43V147a47.15,47.15,0,0,1-5.42,2l-.36-1.43,1.19-.33a9.58,9.58,0,0,0,1.05-.35V139.4h-2v-1.3h5.44v1.3h-2Zm6.09-5.41a13.16,13.16,0,0,1-1.65,6.77,12,12,0,0,1-1.38,1.89,4.78,4.78,0,0,1-.89.91l-1.14-1.15q.2,0,1.32-1.38a9.22,9.22,0,0,0,1.67-3.1,14.45,14.45,0,0,0,.63-3.94h-2.37V139.7h2.4v-3h1.44v3h3.92l-.06,1.79q-.15,6-.36,7.11a2.46,2.46,0,0,1-.77,1.51,4.43,4.43,0,0,1-2.43.44,5.23,5.23,0,0,1-.62,0l-.45-1.48h.36q1,.06,1.38.06a1,1,0,0,0,.86-.37,4.34,4.34,0,0,0,.43-1.88q.14-1.5.21-5.82Z"/><path class="cls-3" d="M200.62,137a9.59,9.59,0,0,1-1,2.27c-.06.09-.13.22-.23.37h.22l1.09,0a3.68,3.68,0,0,0,1.26-.17l-.41-.48-.52-.55,1-.68a27.56,27.56,0,0,1,2.27,2.79l-1.08.77-.22-.35-.23-.3a12.41,12.41,0,0,1-2.59.32q-1.39,0-3.3.09l-.23-1.42h1.2A10.8,10.8,0,0,0,199,137.1l.15-.41ZM202,147.88h-3.4v2.74h-1.32v-8.84h6v7.15a2,2,0,0,1-.28,1.19,1.38,1.38,0,0,1-1.14.37h-1.29l-.3-1.38,1.18.06c.34,0,.52-.16.52-.47Zm0-4.8h-3.4v1.21H202Zm-3.4,3.67H202v-1.32h-3.4Zm7.29-5.64c0,.36.17.53.51.53h1.56a1.88,1.88,0,0,0,.92-.14c.15-.09.22-.3.23-.64s0-.6,0-.78v-.2l1.32.43a3.59,3.59,0,0,1-.42,2.2,2.91,2.91,0,0,1-2,.43H206a1.65,1.65,0,0,1-1.14-.35,1.93,1.93,0,0,1-.37-1.39v-4.38h1.39v2.06a15.81,15.81,0,0,0,4-1.37l.66,1.16a18.49,18.49,0,0,1-4.63,1.58Zm0,7.36c0,.36.17.53.51.53H208a2,2,0,0,0,1-.16c.15-.12.23-.58.23-1.4v-.21l1.31.44a6,6,0,0,1-.3,2.07,1.06,1.06,0,0,1-.65.44,5.7,5.7,0,0,1-1.48.13h-1.94a1.44,1.44,0,0,1-1.71-1.76v-5.14h1.39v2.24a11.89,11.89,0,0,0,4-1.52l.74,1.28a19.23,19.23,0,0,1-4.71,1.7Z"/><path class="cls-3" d="M216.42,136.69h1.45v3.16l.78-.16,0,1.25a52.19,52.19,0,0,1-5.92.88l-.64.08-.28-1.33a31.79,31.79,0,0,0,4.57-.47V139h-4.18v-1.25h4.18Zm7.79,12v.2a1.92,1.92,0,0,1-.29,1.16c-.19.26-.67.38-1.43.38h-2.16L220,149l2.24.07c.34,0,.5-.15.5-.47V148h-7.83v2.6h-1.5v-8.27h10.82Zm-1.49-5.15h-7.83v1h7.83Zm-7.83,3.24h7.83v-1h-7.83Zm6-10.13v1.38a16.36,16.36,0,0,0,4-.87l.55,1.18a24.11,24.11,0,0,1-4.55.9v.54c0,.38.21.56.63.56h2.33q.38,0,.48-.84a3.15,3.15,0,0,1,0-.37l1.37.47a3.46,3.46,0,0,1-.41,1.63,1.13,1.13,0,0,1-1,.37h-3.56a1.45,1.45,0,0,1-1.05-.32,1.68,1.68,0,0,1-.31-1.16v-3.47Z"/><path class="cls-3" d="M227,137.34H240.7v1.33h-6.15v1.18h4.89v6.05h-5.09l-.12.48a4.74,4.74,0,0,1-.88,1.77,15.53,15.53,0,0,0,6.11,1,13.61,13.61,0,0,0,1.39,0l-.31,1.42h-.44c-3.44,0-6-.45-7.7-1.35l-.23.16a12.21,12.21,0,0,1-4.59,1.31l-.66-1.22a11,11,0,0,0,4.15-1l-1-.66c-.45-.33-.83-.62-1.15-.88l1-.81.38.28c.36.26.61.43.74.51l1,.65.19-.19a2.83,2.83,0,0,0,.67-1.44h-4.63v-6.08h4.89v-1.15H227Zm6.18,4.85v-1.12h-3.5v1.12Zm-.09,2.5a1.51,1.51,0,0,0,.07-.53l0-.75h-3.51v1.28Zm4.92,0v-1.28h-3.48l0,.75a1.5,1.5,0,0,1-.06.53Zm0-2.5v-1.12h-3.5v1.12Z"/><path class="cls-3" d="M244.87,148a6.59,6.59,0,0,1-1.67,2.54l-1.15-.95a6.65,6.65,0,0,0,1.59-2.27Zm-2.64-9.3v-1.05H245l-.13-.27a2.67,2.67,0,0,0-.31-.5l1.44-.18a3.75,3.75,0,0,1,.34.51l.25.44h2.67v1.05Zm4.44,5.84a11.16,11.16,0,0,0,2.47-.36v1a11.55,11.55,0,0,1-1.27.21l-1.34.17v.57c0,.91-.36,1.37-1.07,1.37H244l-.27-1.05,1.12.06c.23,0,.35-.13.35-.39v-.46l-1.18.08-1.44.08-.24-1.08,1.63,0,1.23-.08v-.24l.7-.35c.35-.19.6-.34.75-.44h-4v-1h5.87v.74a10.65,10.65,0,0,1-1.65,1.12Zm-3.94-5.19h6v2.59h-6Zm4.68.92H244V141h3.38Zm-.88,10.17c0-.46.05-.94.05-1.44a11.84,11.84,0,0,0-.09-1.34l1.42-.07a1.11,1.11,0,0,1,0,.23A9.43,9.43,0,0,1,248,149l0,1.43Zm5.8-4.34-.48-.68-.5-.68a12.54,12.54,0,0,1-2.36,2.7l-1-1a6.37,6.37,0,0,0,2.47-2.77l-.82-.91a8.35,8.35,0,0,0-.85-.83l.93-.8.6.57.53.58a.39.39,0,0,0,0-.14,5.31,5.31,0,0,0,.13-.89l.07-1h-1.65V139h1.67v-2.35h1.28V139h2.13a24.13,24.13,0,0,0-.16,3v1.39c0,1.37.11,2.05.34,2.05s.22-.6.22-1.8v-.22l1.08.64c-.09,1.87-.52,2.8-1.27,2.8s-1.18-.61-1.5-1.83Zm-2.06,4.37-.15-1.43a9.55,9.55,0,0,0-.27-1.32l1.39-.27c.13.5.23.95.31,1.37l.24,1.39Zm3-5.47c0-.58-.08-1.4-.08-2.47a22.27,22.27,0,0,1,.11-2.27h-.88l-.11,1.36a4.27,4.27,0,0,1-.32,1.8l.66.79Zm1.25,5.54-.15-.39a21.26,21.26,0,0,0-1.13-2.45l1.27-.61.76,1.33c.15.28.35.67.59,1.17l.12.24Z"/><rect class="cls-4" x="19" y="279" width="241" height="3"/></svg>