<svg xmlns="http://www.w3.org/2000/svg" viewBox="0 0 2048 4096"><defs><style>.cls-1{fill:#5f5f5f;}.cls-2{fill:#01c0c0;}.cls-3{fill:#606060;}</style></defs><title>feature_sprite</title><g id="feature_sprites"><polygon class="cls-1" points="393.71 1292.24 393.71 1380.95 650 1380.95 650 1804.81 778.14 1804.81 778.14 1292.24 393.71 1292.24"/><rect class="cls-1" x="245.86" y="1400.67" width="384.43" height="512.57"/><polygon class="cls-2" points="1417.71 1292.24 1417.71 1380.95 1674 1380.95 1674 1804.81 1802.14 1804.81 1802.14 1292.24 1417.71 1292.24"/><rect class="cls-2" x="1269.86" y="1400.67" width="384.43" height="512.57"/><path class="cls-1" d="M410.31,759.59,363,878.82H267.41L474.3,332.66H555L756.59,878.82H660.16L615.45,759.59Zm99.06-296.31-77.15,225.3H590.9Z"/><path class="cls-2" d="M1434.31,759.59,1387,878.82h-95.56L1498.3,332.66H1579l201.63,546.16h-96.43l-44.71-119.23Zm99.06-296.31-77.15,225.3H1614.9Z"/><path class="cls-2" d="M1785.47,240.73v84h84.58v50.54h-84.58v84.59h-50.54V375.32h-84V324.78h84v-84Z"/><polygon class="cls-3" points="676.85 2492.02 676.85 2548.32 843.29 2452.22 676.85 2356.14 676.85 2404.19 542.24 2404.19 542.24 2404.23 542.18 2404.19 336.02 2703.38 180.71 2703.38 180.71 2791.21 381.22 2791.21 381.22 2791.05 381.42 2791.21 587.6 2492.02 676.85 2492.02"/><polygon class="cls-3" points="399.76 2579.64 453.58 2503.68 381.58 2402.03 381.36 2402.19 381.36 2402.03 180.86 2402.03 180.86 2489.86 336.16 2489.86 399.76 2579.64"/><polygon class="cls-3" points="676.85 2701.46 594.7 2701.46 531.2 2611.83 477.38 2687.79 549.28 2789.29 549.33 2789.25 549.33 2789.29 676.85 2789.29 676.85 2837.34 843.29 2741.25 676.85 2645.16 676.85 2701.46"/><polygon class="cls-2" points="1405.22 2791.05 1405.42 2791.21 1611.6 2492.02 1700.85 2492.02 1700.85 2548.32 1867.29 2452.22 1700.85 2356.14 1700.85 2404.19 1566.24 2404.19 1566.24 2404.23 1566.18 2404.19 1360.02 2703.38 1204.71 2703.38 1204.71 2791.21 1405.22 2791.21 1405.22 2791.05"/><polygon class="cls-2" points="1423.76 2579.64 1477.58 2503.68 1405.58 2402.03 1405.36 2402.19 1405.36 2402.03 1204.86 2402.03 1204.86 2489.86 1360.16 2489.86 1423.76 2579.64"/><polygon class="cls-2" points="1867.29 2741.25 1700.85 2645.16 1700.85 2701.46 1618.69 2701.46 1555.2 2611.83 1501.38 2687.79 1573.28 2789.29 1573.33 2789.25 1573.33 2789.29 1700.85 2789.29 1700.85 2837.34 1867.29 2741.25"/><polygon class="cls-2" points="1301.98 3521.02 1813.36 3521.02 1813.36 3483.46 1261.53 3483.46 1261.53 3835.94 1301.98 3835.94 1301.98 3521.02"/><polygon class="cls-2" points="1235.53 3460.35 1746.91 3460.35 1746.91 3422.79 1195.08 3422.79 1195.08 3775.27 1235.53 3775.27 1235.53 3460.35"/><path class="cls-2" d="M1325.09,3542.21v352.48h551.83V3542.21Zm362.11,202.12h-60.8v60.79h-50.79v-60.79h-60.8v-50.8h60.8v-60.79h50.79v60.79h60.8Z"/><polygon class="cls-1" points="277.98 3521.02 789.36 3521.02 789.36 3483.46 237.53 3483.46 237.53 3835.94 277.98 3835.94 277.98 3521.02"/><polygon class="cls-1" points="211.53 3460.35 722.91 3460.35 722.91 3422.79 171.08 3422.79 171.08 3775.27 211.53 3775.27 211.53 3460.35"/><path class="cls-1" d="M301.09,3542.21v352.48H852.92V3542.21ZM663.2,3744.33H602.4v60.79H551.61v-60.79h-60.8v-50.8h60.8v-60.79H602.4v60.79h60.8Z"/></g></svg>