<svg xmlns="http://www.w3.org/2000/svg" viewBox="0 0 2048 3072"><defs><style>.cls-1{fill:#5f5f5f;}.cls-2{fill:#01c0c0;}.cls-3{fill:#606060;}</style></defs><title>feature_sprite</title><g id="feature_sprites"><polygon class="cls-1" points="393.71 1283.5 393.71 1372.21 650 1372.21 650 1796.07 778.14 1796.07 778.14 1283.5 393.71 1283.5"/><rect class="cls-1" x="245.86" y="1391.93" width="384.43" height="512.57"/><polygon class="cls-2" points="1417.71 1283.5 1417.71 1372.21 1674 1372.21 1674 1796.07 1802.14 1796.07 1802.14 1283.5 1417.71 1283.5"/><rect class="cls-2" x="1269.86" y="1391.93" width="384.43" height="512.57"/><path class="cls-1" d="M410.31,750.86,363,870.08H267.41L474.3,323.92H555L756.59,870.08H660.16L615.45,750.86Zm99.06-296.32L432.22,679.85H590.9Z"/><path class="cls-2" d="M1434.31,750.86,1387,870.08h-95.56L1498.3,323.92H1579l201.63,546.16h-96.43l-44.71-119.22Zm99.06-296.32-77.15,225.31H1614.9Z"/><path class="cls-2" d="M1785.47,232v84.06h84.58v50.53h-84.58v84.59h-50.54V366.58h-84V316.05h84V232Z"/><polygon class="cls-3" points="676.85 2483.28 676.85 2539.58 843.29 2443.49 676.85 2347.4 676.85 2395.45 542.24 2395.45 542.24 2395.49 542.18 2395.45 336.02 2694.64 180.71 2694.64 180.71 2782.47 381.22 2782.47 381.22 2782.31 381.42 2782.47 587.6 2483.28 676.85 2483.28"/><polygon class="cls-3" points="399.76 2570.9 453.58 2494.94 381.58 2393.3 381.36 2393.45 381.36 2393.3 180.86 2393.3 180.86 2481.13 336.16 2481.13 399.76 2570.9"/><polygon class="cls-3" points="676.85 2692.72 594.7 2692.72 531.2 2603.09 477.38 2679.05 549.28 2780.55 549.33 2780.51 549.33 2780.55 676.85 2780.55 676.85 2828.6 843.29 2732.51 676.85 2636.42 676.85 2692.72"/><polygon class="cls-2" points="1405.22 2782.31 1405.42 2782.47 1611.6 2483.28 1700.85 2483.28 1700.85 2539.58 1867.29 2443.49 1700.85 2347.4 1700.85 2395.45 1566.24 2395.45 1566.24 2395.49 1566.18 2395.45 1360.02 2694.64 1204.71 2694.64 1204.71 2782.47 1405.22 2782.47 1405.22 2782.31"/><polygon class="cls-2" points="1423.76 2570.9 1477.58 2494.94 1405.58 2393.3 1405.36 2393.45 1405.36 2393.3 1204.86 2393.3 1204.86 2481.13 1360.16 2481.13 1423.76 2570.9"/><polygon class="cls-2" points="1867.29 2732.51 1700.85 2636.42 1700.85 2692.72 1618.69 2692.72 1555.2 2603.09 1501.38 2679.05 1573.28 2780.55 1573.33 2780.51 1573.33 2780.55 1700.85 2780.55 1700.85 2828.6 1867.29 2732.51"/></g></svg>