<svg xmlns="http://www.w3.org/2000/svg" viewBox="0 0 2048 3072"><defs><style>.cls-1{fill:#5f5f5f;}.cls-2{fill:#ffe20e;}.cls-3{fill:#01c0c0;}</style></defs><title>feature_sprite</title><g id="feature_sprites"><path class="cls-1" d="M530.3,2304l79.85,161.79a20.42,20.42,0,0,0,15.37,11.17l178.55,25.94a20.41,20.41,0,0,1,11.31,34.82l-129.2,125.94a20.42,20.42,0,0,0-5.87,18.06l30.5,177.83A20.41,20.41,0,0,1,681.2,2881l-159.7-84a20.4,20.4,0,0,0-19,0l-159.7,84a20.41,20.41,0,0,1-29.61-21.52l30.5-177.83a20.42,20.42,0,0,0-5.87-18.06l-129.2-125.94a20.41,20.41,0,0,1,11.31-34.82l178.55-25.94a20.42,20.42,0,0,0,15.37-11.17L493.7,2304A20.41,20.41,0,0,1,530.3,2304Z"/><path class="cls-2" d="M1554.3,2304l79.85,161.79a20.42,20.42,0,0,0,15.37,11.17l178.55,25.94a20.41,20.41,0,0,1,11.31,34.82l-129.2,125.94a20.42,20.42,0,0,0-5.87,18.06l30.5,177.83A20.41,20.41,0,0,1,1705.2,2881l-159.7-84a20.4,20.4,0,0,0-19,0l-159.7,84a20.41,20.41,0,0,1-29.61-21.52l30.5-177.83a20.42,20.42,0,0,0-5.87-18.06l-129.2-125.94a20.41,20.41,0,0,1,11.31-34.82l178.55-25.94a20.42,20.42,0,0,0,15.37-11.17L1517.7,2304A20.41,20.41,0,0,1,1554.3,2304Z"/><polygon class="cls-1" points="393.71 1283.5 393.71 1372.21 650 1372.21 650 1796.07 778.14 1796.07 778.14 1283.5 393.71 1283.5"/><rect class="cls-1" x="245.86" y="1391.93" width="384.43" height="512.57"/><polygon class="cls-3" points="1417.71 1283.5 1417.71 1372.21 1674 1372.21 1674 1796.07 1802.14 1796.07 1802.14 1283.5 1417.71 1283.5"/><rect class="cls-3" x="1269.86" y="1391.93" width="384.43" height="512.57"/><path class="cls-1" d="M410.31,750.86,363,870.08H267.41L474.3,323.92H555L756.59,870.08H660.16L615.45,750.86Zm99.06-296.32L432.22,679.85H590.9Z"/><path class="cls-3" d="M1434.31,750.86,1387,870.08h-95.56L1498.3,323.92H1579l201.63,546.16h-96.43l-44.71-119.22Zm99.06-296.32-77.15,225.31H1614.9Z"/><path class="cls-3" d="M1785.47,232v84.06h84.58v50.53h-84.58v84.59h-50.54V366.58h-84V316.05h84V232Z"/></g></svg>