<svg xmlns="http://www.w3.org/2000/svg" viewBox="0 0 1024 1025"><defs><style>.cls-1,.cls-2{fill:#c1c1c1;}.cls-2{stroke:#c1c1c1;stroke-miterlimit:10;stroke-width:10px;}</style></defs><title>japanese</title><g id="new_card_sprites"><path class="cls-1" d="M512,165C320.06,165,164.47,320.56,164.47,512.5S320.06,860,512,860,859.53,704.44,859.53,512.5,703.94,165,512,165Zm0,648.72c-166.34,0-301.19-134.85-301.19-301.19S345.66,211.31,512,211.31,813.19,346.16,813.19,512.5,678.34,813.69,512,813.69Z"/><path class="cls-2" d="M551.75,460.65l10.37-22.47,39.75,15.56L595,467.56q38,15.56,50.12,22.47,19,12.12,32.84,34.57Q690,547.09,690,576.45q0,45-34.57,79.5-34.59,36.3-121,48.39a216.58,216.58,0,0,0-15.56-36.29q55.3-8.62,77.78-20.74,25.92-12.07,38-31.11,12.07-17.26,12.1-41.48,0-27.63-15.56-48.39-19-19-53.57-29.39-19,36.3-36.3,55.31-13.85,19-51.85,65.68,5.19,22.47,10.37,36.29l-39.75,13.83-3.46-19q-24.22,20.73-43.2,29.38-20.75,8.63-34.57,8.64-17.3,0-31.11-15.55Q334,654.25,334,628.3q0-34.56,15.56-62.22Q363.36,540.15,391,516q15.56-13.82,51.85-32.84,0-15.56,3.45-60.49-29.4,1.74-46.66,1.73-22.49,0-36.3-1.73l-1.72-39.75a712.63,712.63,0,0,0,88.14,5.18q0-8.62,8.64-67.4l44.94,6.91a421.11,421.11,0,0,0-12.1,57q13.82-1.69,34.57-5.18T550,376q3.45,0,67.41-17.28l1.73,39.75q-55.33,13.86-134.81,22.47-3.5,38-3.46,48.39Q518.89,460.67,551.75,460.65Zm-102,148.64q-3.48-27.63-8.64-88.15-32.85,24.23-53.58,50.12-17.3,24.22-17.28,51.85,0,13.86,5.18,22.47a16.56,16.56,0,0,0,12.1,5.19Q408.3,650.77,449.78,609.29Zm29.38-105.43q0,27.66,3.46,69.13,34.54-51.86,51.85-79.5Q501.62,497,479.16,503.86Z"/></g></svg>