<svg xmlns="http://www.w3.org/2000/svg" viewBox="0 0 1024 1024"><defs><style>.cls-1,.cls-2{fill:#01c0c0;}.cls-1{stroke:#01c0c0;stroke-miterlimit:10;stroke-width:10px;}</style></defs><title>korean_hover</title><g id="new_card_sprites"><path class="cls-1" d="M332.52,426.13V394.7H559.58v31.43ZM446.27,582.82c-51.79,0-91.18-26.12-91.18-69.05,0-43.82,39-69.49,91.18-69.49,52.67,0,91.62,25.67,91.62,69.49C537.89,556.26,498.94,582.82,446.27,582.82ZM387.84,368.15V336.28H500.27v31.87Zm.89,331.52V598.31h38.95v69.94h219.1v31.42Zm57.54-224C418.39,475.7,394,489,394,513.77c0,23.46,24.35,37.62,52.23,37.62,28.33,0,52.67-14.16,52.67-37.62C498.94,489,474.6,475.7,446.27,475.7ZM633.5,487.21V609.38h-39v-285h39V454h58v33.19Z"/><path class="cls-2" d="M512,164.47c-191.94,0-347.53,155.59-347.53,347.53S320.06,859.53,512,859.53,859.53,703.94,859.53,512,703.94,164.47,512,164.47Zm0,648.72c-166.34,0-301.19-134.85-301.19-301.19S345.66,210.81,512,210.81,813.19,345.66,813.19,512,678.34,813.19,512,813.19Z"/></g></svg>