<svg xmlns="http://www.w3.org/2000/svg" viewBox="0 0 2048 3072"><defs><style>.cls-1,.cls-2{fill:#c1c1c1;}.cls-2{stroke:#c1c1c1;}.cls-2,.cls-4{stroke-miterlimit:10;stroke-width:10px;}.cls-3,.cls-4{fill:#01c0c0;}.cls-4{stroke:#01c0c0;}</style></defs><title>lan_sprite</title><g id="new_card_sprites"><path class="cls-1" d="M512,164.47c-191.94,0-347.53,155.59-347.53,347.53S320.06,859.53,512,859.53,859.53,703.94,859.53,512,703.94,164.47,512,164.47Zm0,648.72c-166.34,0-301.19-134.85-301.19-301.19S345.66,210.81,512,210.81,813.19,345.66,813.19,512,678.34,813.19,512,813.19Z"/><path class="cls-2" d="M303.09,633.77V390.23h176.1V419H335.32v74.59H470.05v28.57H335.32V605H484.84v28.74Z"/><path class="cls-2" d="M529,633.77V390.23h33.06L690,581.44V390.23h30.9V633.77H687.85L559.93,442.39V633.77Z"/><path class="cls-3" d="M1536,164.47c-191.94,0-347.53,155.59-347.53,347.53S1344.06,859.53,1536,859.53,1883.53,703.94,1883.53,512,1727.94,164.47,1536,164.47Zm0,648.72c-166.34,0-301.19-134.85-301.19-301.19S1369.66,210.81,1536,210.81,1837.19,345.66,1837.19,512,1702.34,813.19,1536,813.19Z"/><path class="cls-4" d="M1327.09,633.77V390.23h176.1V419H1359.32v74.59h134.73v28.57H1359.32V605h149.52v28.74Z"/><path class="cls-4" d="M1553,633.77V390.23h33.06L1714,581.44V390.23h30.9V633.77h-33.06L1583.93,442.39V633.77Z"/><path class="cls-1" d="M512,1188.47c-191.94,0-347.53,155.59-347.53,347.53S320.06,1883.53,512,1883.53,859.53,1727.94,859.53,1536,703.94,1188.47,512,1188.47Zm0,648.72c-166.34,0-301.19-134.85-301.19-301.19S345.66,1234.81,512,1234.81,813.19,1369.66,813.19,1536,678.34,1837.19,512,1837.19Z"/><path class="cls-2" d="M551.75,1484.15l10.37-22.47,39.75,15.56L595,1491.06q38,15.56,50.12,22.47,19,12.12,32.84,34.57Q690,1570.59,690,1600q0,45-34.57,79.5-34.59,36.3-121,48.39a216.58,216.58,0,0,0-15.56-36.29q55.3-8.62,77.78-20.74,25.92-12.07,38-31.11,12.07-17.27,12.1-41.48,0-27.63-15.56-48.39-19-19-53.57-29.39-19,36.3-36.3,55.31-13.85,19-51.85,65.68,5.19,22.47,10.37,36.29l-39.75,13.83-3.46-19q-24.22,20.73-43.2,29.38-20.75,8.63-34.57,8.64-17.3,0-31.11-15.55Q334,1677.75,334,1651.8q0-34.56,15.56-62.22,13.81-25.93,41.48-50.12,15.56-13.82,51.85-32.84,0-15.55,3.45-60.49-29.4,1.74-46.66,1.73-22.49,0-36.3-1.73l-1.72-39.75a712.63,712.63,0,0,0,88.14,5.18q0-8.62,8.64-67.4l44.94,6.91a421.11,421.11,0,0,0-12.1,57q13.82-1.69,34.57-5.18t24.19-3.46q3.45,0,67.41-17.28l1.73,39.75q-55.33,13.86-134.81,22.47-3.5,38-3.46,48.39Q518.89,1484.17,551.75,1484.15Zm-102,148.64q-3.48-27.63-8.64-88.15-32.85,24.22-53.58,50.12-17.3,24.23-17.28,51.85,0,13.86,5.18,22.47a16.56,16.56,0,0,0,12.1,5.19Q408.3,1674.27,449.78,1632.79Zm29.38-105.43q0,27.66,3.46,69.13,34.54-51.85,51.85-79.5Q501.62,1520.47,479.16,1527.36Z"/><path class="cls-3" d="M1536,1188.47c-191.94,0-347.53,155.59-347.53,347.53s155.59,347.53,347.53,347.53,347.53-155.59,347.53-347.53S1727.94,1188.47,1536,1188.47Zm0,648.72c-166.34,0-301.19-134.85-301.19-301.19s134.85-301.19,301.19-301.19,301.19,134.85,301.19,301.19S1702.34,1837.19,1536,1837.19Z"/><path class="cls-4" d="M1575.75,1484.15l10.37-22.47,39.75,15.56-6.91,13.82q38,15.56,50.12,22.47,19,12.12,32.84,34.57Q1714,1570.59,1714,1600q0,45-34.57,79.5-34.59,36.3-121,48.39a216.58,216.58,0,0,0-15.56-36.29q55.3-8.62,77.78-20.74,25.92-12.07,38-31.11,12.07-17.27,12.1-41.48,0-27.63-15.56-48.39-19-19-53.57-29.39-19,36.3-36.3,55.31-13.85,19-51.85,65.68,5.19,22.47,10.37,36.29l-39.75,13.83-3.46-19q-24.23,20.73-43.2,29.38-20.74,8.63-34.57,8.64-17.3,0-31.11-15.55-13.86-17.27-13.83-43.21,0-34.56,15.56-62.22,13.82-25.93,41.48-50.12,15.56-13.82,51.85-32.84,0-15.55,3.45-60.49-29.4,1.74-46.66,1.73-22.48,0-36.3-1.73l-1.72-39.75a712.63,712.63,0,0,0,88.14,5.18q0-8.62,8.64-67.4l44.94,6.91a421.11,421.11,0,0,0-12.1,57q13.82-1.69,34.57-5.18t24.19-3.46q3.45,0,67.41-17.28l1.73,39.75q-55.34,13.86-134.81,22.47-3.49,38-3.46,48.39Q1542.89,1484.17,1575.75,1484.15Zm-102,148.64q-3.48-27.63-8.64-88.15-32.85,24.22-53.58,50.12-17.3,24.23-17.28,51.85,0,13.86,5.18,22.47a16.56,16.56,0,0,0,12.1,5.19Q1432.31,1674.27,1473.78,1632.79Zm29.38-105.43q0,27.66,3.46,69.13,34.55-51.85,51.85-79.5Q1525.62,1520.47,1503.16,1527.36Z"/><path class="cls-1" d="M512,2212.47c-191.94,0-347.53,155.59-347.53,347.53S320.06,2907.53,512,2907.53,859.53,2751.94,859.53,2560,703.94,2212.47,512,2212.47Zm0,648.72c-166.34,0-301.19-134.85-301.19-301.19S345.66,2258.81,512,2258.81,813.19,2393.66,813.19,2560,678.34,2861.19,512,2861.19Z"/><path class="cls-2" d="M332.52,2474.13V2442.7H559.58v31.43Zm113.75,156.69c-51.79,0-91.18-26.12-91.18-69.05,0-43.82,39-69.49,91.18-69.49,52.67,0,91.62,25.67,91.62,69.49C537.89,2604.26,498.94,2630.82,446.27,2630.82Zm-58.43-214.67v-31.87H500.27v31.87Zm.89,331.52V2646.31h38.95v69.94h219.1v31.42Zm57.54-224c-27.88,0-52.23,13.28-52.23,38.07,0,23.46,24.35,37.62,52.23,37.62,28.33,0,52.67-14.16,52.67-37.62C498.94,2537,474.6,2523.7,446.27,2523.7Zm187.23,11.51v122.17h-39V2372.33h39V2502h58v33.19Z"/><path class="cls-4" d="M1356.52,2474.13V2442.7h227.06v31.43Zm113.75,156.69c-51.79,0-91.18-26.12-91.18-69.05,0-43.82,39-69.49,91.18-69.49,52.67,0,91.62,25.67,91.62,69.49C1561.89,2604.26,1522.94,2630.82,1470.27,2630.82Zm-58.43-214.67v-31.87h112.43v31.87Zm.89,331.52V2646.31h39v69.94h219.1v31.42Zm57.54-224c-27.88,0-52.23,13.28-52.23,38.07,0,23.46,24.35,37.62,52.23,37.62,28.33,0,52.67-14.16,52.67-37.62C1522.94,2537,1498.6,2523.7,1470.27,2523.7Zm187.23,11.51v122.17h-39V2372.33h39V2502h58v33.19Z"/><path class="cls-3" d="M1536,2212.47c-191.94,0-347.53,155.59-347.53,347.53s155.59,347.53,347.53,347.53,347.53-155.59,347.53-347.53S1727.94,2212.47,1536,2212.47Zm0,648.72c-166.34,0-301.19-134.85-301.19-301.19s134.85-301.19,301.19-301.19,301.19,134.85,301.19,301.19S1702.34,2861.19,1536,2861.19Z"/></g></svg>