<svg xmlns="http://www.w3.org/2000/svg" viewBox="0 0 1024 1025"><defs><style>.cls-1{fill:#c1c1c1;}</style></defs><title>light</title><g id="new_card_sprites"><rect class="cls-1" x="411.62" y="720.52" width="200.76" height="58.98"/><path class="cls-1" d="M452.22,857.63H571.78c22.42,0,40.6-29.16,40.6-65.13H411.62C411.62,828.47,429.8,857.63,452.22,857.63Z"/><path class="cls-1" d="M512,167.37c-131.74,0-238.54,106.8-238.54,238.55a237.58,237.58,0,0,0,53.88,151c31.8,48.48,84.17,91.52,84.17,148.44h201c0-56.92,52.37-100,84.17-148.44a237.58,237.58,0,0,0,53.88-151C750.54,274.17,643.74,167.37,512,167.37ZM450,257.94c-60.37,24.21-94.7,74.77-94.92,139.81a12.73,12.73,0,0,1-25.4,1.15c-7.56-80.6,34.32-142.27,112-165a12.73,12.73,0,0,1,13.88,4.75h0A12.71,12.71,0,0,1,450,257.94Z"/></g></svg>