<svg xmlns="http://www.w3.org/2000/svg" viewBox="0 0 1024.35 1024"><defs><style>.cls-1{fill:#c1c1c1;}</style></defs><title>lock</title><g id="lock"><path class="cls-1" d="M656.63,449.62V303.43c0-404.17-606.26-404.17-606.26,0V449.62A66.23,66.23,0,0,0-.25,513.77v444.5a66.18,66.18,0,0,0,66,66H641.25a66.19,66.19,0,0,0,66-66V513.77A66.24,66.24,0,0,0,656.63,449.62Zm-267,308.52V873.6a36.09,36.09,0,1,1-72.17,0V758.14a93.83,93.83,0,1,1,72.17,0ZM562.8,447.78H144.19V309.16c0-279.07,418.61-279.07,418.61,0Z"/></g></svg>