<svg xmlns="http://www.w3.org/2000/svg" viewBox="0 0 1018 594"><defs><style>.cls-1{fill:#ffe20e;}.cls-2{fill:#fff;}</style></defs><title>工作區域 2</title><g id="Logo2"><path class="cls-1" d="M397.87,463.88l-.16,52.2-259.2-.8L305.08,203.79l-145.8-.45.16-52.2,243.6.76L235.87,463.38Z"/><path class="cls-2" d="M465.37,319.94a20.33,20.33,0,1,1-5.91-14A19.19,19.19,0,0,1,465.37,319.94ZM462,516.28l-33.95-.1.43-138.25,33.95.1Z"/><path class="cls-2" d="M530.8,436.35l48.49-58,45.5.14L566.5,439.26l62.41,77.54-46.2-.14L531.46,449.3l-.91,67.2-33.95-.11.75-239,33.95.11Z"/><path class="cls-2" d="M773.45,517.25l-33.25-.1,0-12.6q-14.75,17.12-43.8,17T650.13,499Q632.88,476.57,633,446.47t17.84-51.22q17.73-21.12,45.39-21,29.4.09,44.39,17.64l0-13,33.25.1Zm-29.18-69.39q.06-19.25-10.75-31.71t-27.79-12.51q-17,0-27.69,12t-10.77,32q-.06,20,10.75,32.24t28,12.33q17.14.06,27.69-11.81T744.27,447.86Z"/><path class="cls-2" d="M836.13,393.55q13-18.85,40.66-18.77a36.83,36.83,0,0,1,16.09,3.55l-4.29,30.78a30.74,30.74,0,0,0-16.79-4.95q-35.7-.11-35.86,51l-.19,62.3-34-.11.43-138.25,33.95.11Z"/><polygon class="cls-1" points="388.96 79.14 394.03 127.71 410.88 80.93 388.96 79.14"/><polygon class="cls-1" points="433.28 90.39 419.25 137.17 452.83 100.49 433.28 90.39"/><polygon class="cls-1" points="469.98 124.13 433.02 156.05 481.04 143.14 469.98 124.13"/></g></svg>