<svg xmlns="http://www.w3.org/2000/svg" viewBox="0 0 1018 594"><defs><style>.cls-1{fill:#ffe20e;}.cls-2{fill:#fff;}</style></defs><title>工作區域 2</title><g id="Logo2"><path class="cls-1" d="M302.1,464.31l0,52.2L43,516.78,208.23,204.61l-145.8.15,0-52.2,243.6-.25L140.1,464.48Z"/><path class="cls-2" d="M392.76,235.92a29,29,0,1,1-8.52-20A27.36,27.36,0,0,1,392.76,235.92Zm-3.71,280.5-48.5.05L340.34,319l48.5-.05Z"/><path class="cls-2" d="M486.93,401.82l68.91-83.07,65-.06-82.91,87.08,89.62,110.41-66,.07L488,420.32l-.9,96-48.5,0-.36-341.5,48.5-.05Z"/><path class="cls-2" d="M834,516l-47.5,0,0-18q-21,24.54-62.47,24.57t-66.29-31.93q-24.78-32-24.82-75t25.17-73.27q25.21-30.27,64.72-30.32,42,0,63.53,24.93l0-18.5,47.5,0Zm-42.1-99q0-27.5-15.55-45.24t-39.77-17.7q-24.25,0-39.48,17.29t-15.2,45.76q0,28.5,15.55,46t40,17.46q24.5,0,39.49-17.05T791.94,417Z"/><path class="cls-2" d="M922.85,338.87q18.46-27,58-27.06a53,53,0,0,1,23,5l-6,44a43.82,43.82,0,0,0-24-7q-51,.06-50.93,73.05l.09,89-48.5,0-.2-197.5,48.5-.05Z"/><polygon class="cls-1" points="272.13 59.11 279.41 126.19 302.44 61.45 272.13 59.11"/><polygon class="cls-1" points="333.44 74.4 314.32 139.12 360.5 88.24 333.44 74.4"/><polygon class="cls-1" points="384.33 120.8 333.45 165.12 399.73 147.01 384.33 120.8"/></g></svg>