<svg xmlns="http://www.w3.org/2000/svg" viewBox="0 0 2048 3072"><defs><style>.cls-1{fill:#5f5f5f;}.cls-2{fill:#e02d2d;}.cls-3{fill:#01c0c0;}</style></defs><title>make_card_sprite</title><g id="make_card_sprites"><path class="cls-1" d="M332,1789.71A43.42,43.42,0,0,0,375.29,1833H648.71A43.42,43.42,0,0,0,692,1789.71V1383H332Z"/><polygon class="cls-1" points="614 1275 602 1239 423 1239 410.33 1275 305 1275 305 1365 719 1365 719 1275 614 1275"/><path class="cls-2" d="M1356,1789.71a43.42,43.42,0,0,0,43.29,43.29h273.42a43.42,43.42,0,0,0,43.29-43.29V1383H1356Z"/><polygon class="cls-2" points="1638 1275 1626 1239 1447 1239 1434.33 1275 1329 1275 1329 1365 1743 1365 1743 1275 1638 1275"/><path class="cls-1" d="M754.63,214.82H269.37a54.71,54.71,0,0,0-54.55,54.55V754.63a54.71,54.71,0,0,0,54.55,54.55H754.63a54.71,54.71,0,0,0,54.55-54.55V269.37A54.71,54.71,0,0,0,754.63,214.82ZM531.94,733.87H267.65L399.79,505l71.47,123.78L583.47,434.43,756.35,733.87Z"/><path class="cls-3" d="M1778.63,214.82H1293.37a54.71,54.71,0,0,0-54.55,54.55V754.63a54.71,54.71,0,0,0,54.55,54.55h485.26a54.71,54.71,0,0,0,54.55-54.55V269.37A54.71,54.71,0,0,0,1778.63,214.82ZM1555.94,733.87H1291.65L1423.79,505l71.47,123.78,112.21-194.34,172.88,299.44Z"/><path class="cls-1" d="M563.69,2560l205.24-205.24a36.56,36.56,0,0,0,0-51.69h0a36.56,36.56,0,0,0-51.69,0L512,2508.31,306.76,2303.07a36.56,36.56,0,0,0-51.69,0h0a36.56,36.56,0,0,0,0,51.69L460.31,2560,255.07,2765.24a36.56,36.56,0,0,0,0,51.69h0a36.56,36.56,0,0,0,51.69,0L512,2611.69l205.24,205.24a36.56,36.56,0,0,0,51.69,0h0a36.56,36.56,0,0,0,0-51.69Z"/><path class="cls-2" d="M1587.69,2560l205.24-205.24a36.56,36.56,0,0,0,0-51.69h0a36.56,36.56,0,0,0-51.69,0L1536,2508.31l-205.24-205.24a36.56,36.56,0,0,0-51.69,0h0a36.56,36.56,0,0,0,0,51.69L1484.31,2560l-205.24,205.24a36.56,36.56,0,0,0,0,51.69h0a36.56,36.56,0,0,0,51.69,0L1536,2611.69l205.24,205.24a36.56,36.56,0,0,0,51.69,0h0a36.56,36.56,0,0,0,0-51.69Z"/></g></svg>