<svg xmlns="http://www.w3.org/2000/svg" viewBox="0 0 2048 1024"><defs><style>.cls-1{fill:#c1c1c1;}.cls-2,.cls-3{fill:#fff;}.cls-3{stroke:#fff;stroke-miterlimit:10;}.cls-4{fill:#01c0c0;}</style></defs><title>new_card_sprite</title><g id="new_card_sprites"><circle class="cls-1" cx="511.61" cy="512.26" r="512"/><rect class="cls-2" x="345.71" y="374.59" width="548.23" height="346.25" transform="translate(-55.01 69.41) rotate(-6.14)"/><path class="cls-3" d="M248.87,870.54a140.53,140.53,0,0,1-7.1,24.54l-9.19-3.42a117.5,117.5,0,0,0,7.68-23.48Zm66.59-14.3c0,19.7-1.23,31.16-3.69,34.48s-7.2,5-14.12,5q-4.26,0-8.8-.29l-2.37-9.37a85.26,85.26,0,0,0,9.47.56c4.74,0,7.58-1.51,8.33-4.35s1.14-8.62,1.14-17.34H241.58V811h70.57v8.8H283.92v6.35h23.87v8.43H283.92V841H307.6v8.53H283.92v6.72Zm-64-36.47v6.35h22.83v-6.35Zm0,21.22h22.83v-6.44H251.43Zm0,15.25h22.83v-6.72H251.43Zm14.21,34.67-9.38,1.23a146.77,146.77,0,0,0-1.8-21.31l8.81-1A125.76,125.76,0,0,1,265.64,890.91Zm18.28-5.21L275.3,889c-1.42-6.15-3.13-12.12-5-18l8.43-2.28A152,152,0,0,1,283.92,885.7Zm15.53-4.55L291,883.24a119,119,0,0,0-4.45-13.64l8-2.75A112.85,112.85,0,0,1,299.45,881.15Z"/><path class="cls-3" d="M370,808.41v28.13h35.05v9.57H370v37h42.06v9.66H326.92v-9.66h32.86V808.41Z"/><path class="cls-3" d="M436.88,868.36a92.78,92.78,0,0,1-9.19,25.1l-8.24-5.2A70.65,70.65,0,0,0,428,866.47Zm-6.06-31.25a57.67,57.67,0,0,0-4-8.72l8.71-3.31a109.56,109.56,0,0,1,4.07,12H448a118.57,118.57,0,0,0,3.69-12l8.81,3.12c-1.13,3.23-2.27,6.16-3.5,8.91h9.19v9H449v7.67h15.53v9H449v24.81c0,5.87-3.31,8.81-9.85,8.81h-4.93l-2.17-9.09a15.75,15.75,0,0,0,3.88.66c2.08,0,3.22-1,3.22-2.75V862.78H422.67v-9h16.48v-7.67h-18v-9Zm7.67-21.5a53.43,53.43,0,0,0-3.7-6.54l10.23-1.7c1.14,2.46,2.18,5.21,3.32,8.24h17.24v9.09H422.1v-9.09Zm25.67,66.49-8.34,3.22a152.19,152.19,0,0,0-5.3-17.24l8.14-2.18A163,163,0,0,1,464.16,882.1ZM506,817.88a104.76,104.76,0,0,1-26.71,4.83v14.68H508v9.38H499.3v49.35h-9.76V846.77H479.31v9q-.71,25.14-11.08,40.16l-7.1-7.49c5.3-7.86,8.24-18.75,8.61-32.67V814.66A90.27,90.27,0,0,0,501.19,809Z"/><path class="cls-3" d="M524.86,832.66V808.88h9.76v23.78h8.43v9.28h-8.43V869.5q4.83-2,9.66-4.55v9.86a163.86,163.86,0,0,1-27.18,10.7l-2.47-9.76c3.41-.75,6.82-1.61,10.23-2.65V841.94h-9.18v-9.28Zm42.34-13h11.27a69.86,69.86,0,0,0,3.23-11.84l9.75,1.33a65.4,65.4,0,0,1-3.31,10.51H599.6V854H546V819.68h11.84c-1.24-3.5-2.56-6.72-4-9.76l9.85-1.7C564.84,811.63,566.07,815.42,567.2,819.68Zm29,76.44h-9.47V892.9H559.06v3.22h-9.47V858.8h46.6Zm-27.47-68.29H554.51v18.28h14.21Zm-2.28,14.58L560.29,844a95.51,95.51,0,0,0-3.88-11.74l6.15-2C563.89,833.79,565.21,837.87,566.44,842.41Zm20.28,29.65v-5.4H559.06v5.4Zm0,12.88v-5.49H559.06v5.49Zm4.35-57.11H576.3v18.28h14.77Zm-2.18,3.69a67.34,67.34,0,0,1-4.35,12.79l-6.07-2.18a62,62,0,0,0,4-12.32Z"/><path class="cls-3" d="M679.34,834.46v9.09a207.62,207.62,0,0,1-19.7,12.22v4.07h36.18v9.47H659.64v16.86c0,6.35-3.31,9.57-9.85,9.57H638.14l-2.37-9c3.22.19,6.82.28,10.71.28,2.08,0,3.22-1.42,3.22-4.16V869.31H611.24v-9.47H649.7v-8.05c6.25-3.22,11.27-6,15-8.24H627.53v-9.09ZM694.4,840h-9.94V826.69h-62V840h-9.94V817.31h35.71a81.9,81.9,0,0,0-4.17-8l11.46-1.89a85.84,85.84,0,0,1,3.79,9.94h35Z"/><path class="cls-3" d="M748.58,808.6V819h29.83v9.47H748.58v11.36h42v9.67h-42v7.86c10.79,4.73,21.88,10.23,33.15,16.48L776,882.29a313.28,313.28,0,0,0-27.46-15.16V896H738.53v-46.5H705.67v-9.67h32.86V808.6Z"/><polygon class="cls-1" points="715.24 525.95 643.63 533.48 636.1 461.87 600.3 465.64 607.83 537.24 536.22 544.77 539.99 580.57 611.59 573.04 619.12 644.65 654.92 640.89 647.39 569.28 719 561.75 715.24 525.95"/><polygon class="cls-2" points="321.77 398.89 815.49 345.8 773.84 212.21 250.46 375.41 353.53 705.97 354.75 705.59 321.77 398.89"/><polygon class="cls-2" points="242.46 371.41 705.18 227.13 579.46 66.52 147.75 404.43 322.28 627.4 242.46 371.41"/><circle class="cls-4" cx="1535.61" cy="512.26" r="512"/><polygon class="cls-2" points="1685.21 196 1546.54 39.63 1136.37 403.39 1339.44 632.38 1237.35 370.81 1685.21 196"/><polygon class="cls-2" points="1826.17 346.77 1759.16 175.09 1248.45 374.43 1374.35 696.98 1375.88 696.39 1343.86 398.63 1826.17 346.77"/><rect class="cls-2" x="1369.71" y="374.59" width="548.23" height="346.25" transform="translate(-49.14 178.89) rotate(-6.14)"/><path class="cls-3" d="M1272.87,870.54a140.53,140.53,0,0,1-7.1,24.54l-9.19-3.42a117.5,117.5,0,0,0,7.68-23.48Zm66.59-14.3c0,19.7-1.23,31.16-3.69,34.48s-7.2,5-14.12,5q-4.26,0-8.8-.29l-2.37-9.37a85.26,85.26,0,0,0,9.47.56c4.74,0,7.58-1.51,8.33-4.35s1.14-8.62,1.14-17.34h-63.84V811h70.57v8.8h-28.23v6.35h23.87v8.43h-23.87V841h23.68v8.53h-23.68v6.72Zm-64-36.47v6.35h22.83v-6.35Zm0,21.22h22.83v-6.44h-22.83Zm0,15.25h22.83v-6.72h-22.83Zm14.21,34.67-9.38,1.23a146.77,146.77,0,0,0-1.8-21.31l8.81-1A125.76,125.76,0,0,1,1289.64,890.91Zm18.28-5.21L1299.3,889c-1.42-6.15-3.13-12.12-5-18l8.43-2.28A152,152,0,0,1,1307.92,885.7Zm15.53-4.55-8.43,2.09a119,119,0,0,0-4.45-13.64l8-2.75A112.85,112.85,0,0,1,1323.45,881.15Z"/><path class="cls-3" d="M1394,808.41v28.13h35v9.57h-35v37h42.06v9.66h-85.15v-9.66h32.86V808.41Z"/><path class="cls-3" d="M1460.88,868.36a92.78,92.78,0,0,1-9.19,25.1l-8.24-5.2a70.65,70.65,0,0,0,8.52-21.79Zm-6.06-31.25a57.67,57.67,0,0,0-4-8.72l8.71-3.31a109.56,109.56,0,0,1,4.07,12H1472a118.57,118.57,0,0,0,3.69-12l8.81,3.12c-1.13,3.23-2.27,6.16-3.5,8.91h9.19v9H1473v7.67h15.53v9H1473v24.81c0,5.87-3.31,8.81-9.85,8.81h-4.93l-2.17-9.09a15.75,15.75,0,0,0,3.88.66c2.08,0,3.22-1,3.22-2.75V862.78h-16.48v-9h16.48v-7.67h-18v-9Zm7.67-21.5a53.43,53.43,0,0,0-3.7-6.54l10.23-1.7c1.14,2.46,2.18,5.21,3.32,8.24h17.24v9.09H1446.1v-9.09Zm25.67,66.49-8.34,3.22a152.19,152.19,0,0,0-5.3-17.24l8.14-2.18A163,163,0,0,1,1488.16,882.1ZM1530,817.88a104.76,104.76,0,0,1-26.71,4.83v14.68H1532v9.38h-8.71v49.35h-9.76V846.77h-10.23v9q-.7,25.14-11.08,40.16l-7.1-7.49c5.3-7.86,8.24-18.75,8.61-32.67V814.66a90.27,90.27,0,0,0,31.45-5.68Z"/><path class="cls-3" d="M1548.86,832.66V808.88h9.76v23.78h8.43v9.28h-8.43V869.5q4.83-2,9.66-4.55v9.86a163.86,163.86,0,0,1-27.18,10.7l-2.47-9.76c3.41-.75,6.82-1.61,10.23-2.65V841.94h-9.18v-9.28Zm42.34-13h11.27a69.86,69.86,0,0,0,3.23-11.84l9.75,1.33a65.4,65.4,0,0,1-3.31,10.51h11.46V854H1570V819.68h11.84c-1.24-3.5-2.56-6.72-4-9.76l9.85-1.7C1588.84,811.63,1590.07,815.42,1591.2,819.68Zm29,76.44h-9.47V892.9h-27.66v3.22h-9.47V858.8h46.6Zm-27.47-68.29h-14.21v18.28h14.21Zm-2.28,14.58-6.15,1.61a95.51,95.51,0,0,0-3.88-11.74l6.15-2C1587.89,833.79,1589.21,837.87,1590.44,842.41Zm20.28,29.65v-5.4h-27.66v5.4Zm0,12.88v-5.49h-27.66v5.49Zm4.35-57.11H1600.3v18.28h14.77Zm-2.18,3.69a67.34,67.34,0,0,1-4.35,12.79l-6.07-2.18a62,62,0,0,0,4-12.32Z"/><path class="cls-3" d="M1703.34,834.46v9.09a207.62,207.62,0,0,1-19.7,12.22v4.07h36.18v9.47h-36.18v16.86c0,6.35-3.31,9.57-9.85,9.57h-11.65l-2.37-9c3.22.19,6.82.28,10.71.28,2.08,0,3.22-1.42,3.22-4.16V869.31h-38.46v-9.47h38.46v-8.05c6.25-3.22,11.27-6,15-8.24h-37.13v-9.09ZM1718.4,840h-9.94V826.69h-62V840h-9.94V817.31h35.71a81.9,81.9,0,0,0-4.17-8l11.46-1.89a85.84,85.84,0,0,1,3.79,9.94h35Z"/><path class="cls-3" d="M1772.58,808.6V819h29.83v9.47h-29.83v11.36h42.05v9.67h-42.05v7.86c10.79,4.73,21.88,10.23,33.15,16.48l-5.69,8.43a313.28,313.28,0,0,0-27.46-15.16V896h-10v-46.5h-32.86v-9.67h32.86V808.6Z"/><polygon class="cls-4" points="1739.24 525.95 1667.63 533.48 1660.1 461.87 1624.3 465.64 1631.83 537.24 1560.22 544.77 1563.98 580.57 1635.59 573.04 1643.12 644.65 1678.92 640.89 1671.39 569.28 1743 561.75 1739.24 525.95"/></g></svg>