<svg xmlns="http://www.w3.org/2000/svg" viewBox="0 0 2048 2048"><defs><style>.cls-1{fill:#c1c1c1;}.cls-2{fill:#01c0c0;}</style></defs><title>new_card_sprite</title><g id="new_card_sprites"><rect class="cls-1" x="411.62" y="1744.02" width="200.76" height="58.98"/><path class="cls-1" d="M452.22,1881.13H571.78c22.42,0,40.6-29.16,40.6-65.13H411.62C411.62,1852,429.8,1881.13,452.22,1881.13Z"/><path class="cls-1" d="M512,1190.87c-131.74,0-238.54,106.8-238.54,238.55a237.58,237.58,0,0,0,53.88,151c31.8,48.48,84.17,91.52,84.17,148.44h201c0-56.92,52.37-100,84.17-148.44a237.58,237.58,0,0,0,53.88-151C750.54,1297.67,643.74,1190.87,512,1190.87ZM450,1281.44c-60.37,24.21-94.7,74.77-94.92,139.81a12.73,12.73,0,0,1-25.4,1.15c-7.56-80.6,34.32-142.27,112-165a12.73,12.73,0,0,1,13.88,4.75h0A12.71,12.71,0,0,1,450,1281.44Z"/><rect class="cls-2" x="1435.62" y="1744.02" width="200.76" height="58.98"/><path class="cls-2" d="M1476.22,1881.13h119.56c22.42,0,40.6-29.16,40.6-65.13H1435.62C1435.62,1852,1453.8,1881.13,1476.22,1881.13Z"/><path class="cls-2" d="M1536,1190.87c-131.74,0-238.54,106.8-238.54,238.55a237.58,237.58,0,0,0,53.88,151c31.8,48.48,84.17,91.52,84.17,148.44h201c0-56.92,52.37-100,84.17-148.44a237.58,237.58,0,0,0,53.88-151C1774.54,1297.67,1667.74,1190.87,1536,1190.87Zm-62,90.57c-60.37,24.21-94.7,74.77-94.92,139.81a12.73,12.73,0,0,1-25.4,1.15c-7.56-80.6,34.32-142.27,112-165a12.73,12.73,0,0,1,13.88,4.75h0A12.71,12.71,0,0,1,1474,1281.44Z"/><polygon class="cls-2" points="1858.5 456.1 1591.9 456.1 1591.9 189.5 1480.1 189.5 1480.1 456.1 1213.5 456.1 1213.5 567.9 1480.1 567.9 1480.1 834.5 1591.9 834.5 1591.9 567.9 1858.5 567.9 1858.5 456.1"/><polygon class="cls-1" points="834.5 456.1 567.9 456.1 567.9 189.5 456.1 189.5 456.1 456.1 189.5 456.1 189.5 567.9 456.1 567.9 456.1 834.5 567.9 834.5 567.9 567.9 834.5 567.9 834.5 456.1"/></g></svg>