<svg xmlns="http://www.w3.org/2000/svg" viewBox="0 0 1024.35 1024"><defs><style>.cls-1{fill:#fff;}</style></defs><title>password</title><g id="password"><path class="cls-1" d="M792.46,700l-23.75-25.66,1.9-49.31-49.31-1.9-29.93-32.33L693,547.47,649.7,545.8l-77.08-83.26a201.55,201.55,0,0,0,19.61-87c0-111.7-90.55-202.25-202.25-202.25S187.74,263.88,187.74,375.58,278.29,577.82,390,577.82a201.81,201.81,0,0,0,72.94-13.56l260.14,281,.12-.1,1.82,2,105.41,4.07,5.77-149.5Zm-437-362c-32.56,30.14-73.93,38.4-92.4,18.45s-7.05-60.56,25.51-90.71,73.93-38.4,92.4-18.44S388,307.89,355.44,338Z"/></g></svg>