<svg xmlns="http://www.w3.org/2000/svg" viewBox="0 0 1024 1024"><defs><style>.cls-1{fill:#01c0c0;}</style></defs><title>shuffle_hover</title><g id="shuffle"><polygon class="cls-1" points="668.85 412.95 668.85 467.32 829.58 374.52 668.85 281.73 668.85 328.13 538.84 328.13 538.84 328.17 538.79 328.13 339.69 617.06 189.71 617.06 189.71 701.88 383.34 701.88 383.34 701.73 383.55 701.88 582.65 412.95 668.85 412.95"/><polygon class="cls-1" points="401.25 497.57 453.22 424.2 383.69 326.05 383.48 326.2 383.48 326.05 189.86 326.05 189.86 410.87 339.83 410.87 401.25 497.57"/><polygon class="cls-1" points="668.85 615.21 589.5 615.21 528.19 528.64 476.21 602.01 545.64 700.02 545.7 699.99 545.7 700.02 668.85 700.02 668.85 746.43 829.58 653.63 668.85 560.84 668.85 615.21"/></g></svg>