<svg xmlns="http://www.w3.org/2000/svg" viewBox="0 0 2048 2048"><defs><style>.cls-1{fill:#c1c1c1;}.cls-2{fill:#01c0c0;}.cls-3{fill:#ffe20e;}</style></defs><title>speak_sprite</title><g id="make_card_sprites"><path class="cls-1" d="M557.73,275.9,386.19,390H252.12a37.4,37.4,0,0,0-37.4,37.4V652a37.39,37.39,0,0,0,37.4,37.4H385L557.73,804.1c23.32,13.46,52.47-3.37,52.47-30.3V306.2C610.2,279.27,581.05,262.44,557.73,275.9Z"/><path class="cls-1" d="M656.63,385.77,639,400c94,77.69,95,201.36,3,280l17.59,14.21C760.81,607.56,759.8,471.47,656.63,385.77Z"/><path class="cls-1" d="M731.14,349.07l-17.6,17.6c94,96.18,95,249.27,3,346.66l17.59,17.6C835.32,623.63,834.32,455.16,731.14,349.07Z"/><path class="cls-2" d="M1581.73,275.9,1410.19,390H1276.12a37.4,37.4,0,0,0-37.4,37.4V652a37.39,37.39,0,0,0,37.4,37.4H1409L1581.73,804.1c23.32,13.46,52.47-3.37,52.47-30.3V306.2C1634.2,279.27,1605.05,262.44,1581.73,275.9Z"/><path class="cls-2" d="M1680.63,385.77,1663,400c94,77.69,95,201.36,3,280l17.59,14.21C1784.81,607.56,1783.8,471.47,1680.63,385.77Z"/><path class="cls-2" d="M1755.14,349.07l-17.6,17.6c94,96.18,95,249.27,3,346.66l17.59,17.6C1859.32,623.63,1858.32,455.16,1755.14,349.07Z"/><path class="cls-1" d="M530.3,1252l79.85,161.79a20.42,20.42,0,0,0,15.37,11.17l178.55,25.94a20.41,20.41,0,0,1,11.31,34.82l-129.2,125.94a20.42,20.42,0,0,0-5.87,18.06l30.5,177.83A20.41,20.41,0,0,1,681.2,1829l-159.7-84a20.4,20.4,0,0,0-19,0l-159.7,84a20.41,20.41,0,0,1-29.61-21.52l30.5-177.83a20.42,20.42,0,0,0-5.87-18.06l-129.2-125.94a20.41,20.41,0,0,1,11.31-34.82l178.55-25.94a20.42,20.42,0,0,0,15.37-11.17L493.7,1252A20.41,20.41,0,0,1,530.3,1252Z"/><path class="cls-3" d="M1554.3,1252l79.85,161.79a20.42,20.42,0,0,0,15.37,11.17l178.55,25.94a20.41,20.41,0,0,1,11.31,34.82l-129.2,125.94a20.42,20.42,0,0,0-5.87,18.06l30.5,177.83A20.41,20.41,0,0,1,1705.2,1829l-159.7-84a20.4,20.4,0,0,0-19,0l-159.7,84a20.41,20.41,0,0,1-29.61-21.52l30.5-177.83a20.42,20.42,0,0,0-5.87-18.06l-129.2-125.94a20.41,20.41,0,0,1,11.31-34.82l178.55-25.94a20.42,20.42,0,0,0,15.37-11.17L1517.7,1252A20.41,20.41,0,0,1,1554.3,1252Z"/></g></svg>